<svg xmlns="http://www.w3.org/2000/svg" xmlns:xlink="http://www.w3.org/1999/xlink" width="618" zoomAndPan="magnify" viewBox="0 0 463.5 139.500001" height="186" preserveAspectRatio="xMidYMid meet" version="1.0"><defs><filter x="0%" y="0%" width="100%" height="100%" id="46bf34736f"><feColorMatrix values="0 0 0 0 1 0 0 0 0 1 0 0 0 0 1 0 0 0 1 0" color-interpolation-filters="sRGB"/></filter><g/><clipPath id="c83c18cb4a"><path d="M 0.578125 42.707031 L 96.503906 42.707031 L 96.503906 138.632812 L 0.578125 138.632812 Z M 0.578125 42.707031 " clip-rule="nonzero"/></clipPath><mask id="07249d5e8e"><g filter="url(#46bf34736f)"><rect x="-46.35" width="556.2" fill="#000000" y="-13.95" height="167.400001" fill-opacity="0.76"/></g></mask><clipPath id="860e87b274"><path d="M 0.222656 0.925781 L 96.152344 0.925781 L 96.152344 96.851562 L 0.222656 96.851562 Z M 0.222656 0.925781 " clip-rule="nonzero"/></clipPath><clipPath id="ab56b98b72"><rect x="0" width="97" y="0" height="97"/></clipPath></defs><g clip-path="url(#c83c18cb4a)"><path fill="#0d6fe5" d="M 31.460938 136.585938 L 2.554688 107.679688 C 2.238281 107.367188 1.960938 107.027344 1.714844 106.65625 C 1.46875 106.289062 1.261719 105.902344 1.09375 105.492188 C 0.921875 105.085938 0.796875 104.664062 0.710938 104.230469 C 0.625 103.796875 0.578125 103.359375 0.578125 102.914062 C 0.582031 102.472656 0.625 102.035156 0.710938 101.601562 C 0.796875 101.167969 0.921875 100.746094 1.09375 100.339844 C 1.261719 99.929688 1.46875 99.542969 1.714844 99.171875 C 1.960938 98.804688 2.238281 98.464844 2.554688 98.152344 L 56.023438 44.679688 C 56.335938 44.367188 56.679688 44.089844 57.046875 43.84375 C 57.414062 43.597656 57.800781 43.390625 58.210938 43.222656 C 58.617188 43.050781 59.039062 42.925781 59.472656 42.835938 C 59.90625 42.75 60.34375 42.707031 60.789062 42.707031 C 61.230469 42.707031 61.667969 42.75 62.101562 42.835938 C 62.535156 42.925781 62.957031 43.050781 63.367188 43.222656 C 63.773438 43.390625 64.164062 43.597656 64.53125 43.84375 C 64.898438 44.089844 65.238281 44.367188 65.550781 44.679688 L 94.457031 73.585938 C 94.769531 73.898438 95.050781 74.242188 95.292969 74.609375 C 95.539062 74.976562 95.746094 75.363281 95.917969 75.773438 C 96.085938 76.179688 96.214844 76.601562 96.300781 77.035156 C 96.386719 77.46875 96.429688 77.90625 96.429688 78.351562 C 96.429688 78.792969 96.386719 79.230469 96.300781 79.664062 C 96.214844 80.097656 96.085938 80.519531 95.917969 80.929688 C 95.746094 81.335938 95.539062 81.726562 95.292969 82.09375 C 95.050781 82.460938 94.769531 82.800781 94.457031 83.113281 L 40.984375 136.585938 C 40.671875 136.898438 40.332031 137.175781 39.964844 137.421875 C 39.597656 137.667969 39.207031 137.875 38.800781 138.046875 C 38.390625 138.214844 37.96875 138.34375 37.535156 138.429688 C 37.101562 138.515625 36.664062 138.558594 36.222656 138.558594 C 35.78125 138.558594 35.34375 138.515625 34.90625 138.429688 C 34.472656 138.34375 34.054688 138.214844 33.644531 138.046875 C 33.234375 137.875 32.847656 137.667969 32.480469 137.421875 C 32.113281 137.175781 31.773438 136.898438 31.460938 136.585938 Z M 31.460938 136.585938 " fill-opacity="1" fill-rule="nonzero"/></g><g mask="url(#07249d5e8e)"><g transform="matrix(1, 0, 0, 1, 12, 30)"><g clip-path="url(#ab56b98b72)"><g clip-path="url(#860e87b274)"><path fill="#05a4c8" d="M 88.488281 1.140625 C 89 1.003906 89.519531 0.9375 90.046875 0.9375 C 90.574219 0.933594 91.09375 1.003906 91.605469 1.140625 C 92.117188 1.277344 92.601562 1.476562 93.058594 1.742188 C 93.515625 2.007812 93.933594 2.324219 94.304688 2.699219 C 94.679688 3.074219 95 3.488281 95.261719 3.945312 C 95.527344 4.402344 95.726562 4.886719 95.863281 5.398438 C 96 5.910156 96.070312 6.429688 96.070312 6.957031 C 96.070312 7.484375 96 8.003906 95.863281 8.515625 L 84.636719 50.410156 L 73.410156 92.308594 C 73.273438 92.820312 73.070312 93.304688 72.808594 93.761719 C 72.542969 94.21875 72.226562 94.636719 71.851562 95.007812 C 71.476562 95.382812 71.0625 95.703125 70.605469 95.964844 C 70.144531 96.230469 69.664062 96.429688 69.152344 96.566406 C 68.640625 96.703125 68.121094 96.773438 67.59375 96.773438 C 67.066406 96.773438 66.546875 96.703125 66.035156 96.566406 C 65.523438 96.429688 65.039062 96.230469 64.582031 95.964844 C 64.125 95.699219 63.710938 95.382812 63.335938 95.007812 L 1.992188 33.664062 C 1.617188 33.289062 1.300781 32.875 1.035156 32.414062 C 0.769531 31.957031 0.570312 31.472656 0.433594 30.964844 C 0.296875 30.453125 0.226562 29.933594 0.226562 29.40625 C 0.226562 28.878906 0.296875 28.359375 0.433594 27.847656 C 0.570312 27.335938 0.769531 26.851562 1.035156 26.394531 C 1.296875 25.9375 1.617188 25.523438 1.992188 25.148438 C 2.363281 24.773438 2.78125 24.457031 3.238281 24.191406 C 3.695312 23.929688 4.179688 23.726562 4.691406 23.589844 L 46.589844 12.363281 Z M 88.488281 1.140625 " fill-opacity="1" fill-rule="nonzero"/></g></g></g></g><g fill="#202020" fill-opacity="1"><g transform="translate(122.616557, 85.700932)"><g><path d="M 18.40625 0.40625 C 15.414062 0.40625 12.734375 -0.078125 10.359375 -1.046875 C 7.992188 -2.015625 6.101562 -3.453125 4.6875 -5.359375 C 3.269531 -7.265625 2.523438 -9.554688 2.453125 -12.234375 L 13.046875 -12.234375 C 13.203125 -10.710938 13.722656 -9.554688 14.609375 -8.765625 C 15.503906 -7.972656 16.671875 -7.578125 18.109375 -7.578125 C 19.585938 -7.578125 20.753906 -7.914062 21.609375 -8.59375 C 22.460938 -9.269531 22.890625 -10.207031 22.890625 -11.40625 C 22.890625 -12.414062 22.546875 -13.25 21.859375 -13.90625 C 21.179688 -14.570312 20.347656 -15.117188 19.359375 -15.546875 C 18.367188 -15.972656 16.960938 -16.457031 15.140625 -17 C 12.503906 -17.820312 10.347656 -18.640625 8.671875 -19.453125 C 7.003906 -20.265625 5.566406 -21.46875 4.359375 -23.0625 C 3.160156 -24.65625 2.5625 -26.734375 2.5625 -29.296875 C 2.5625 -33.097656 3.9375 -36.078125 6.6875 -38.234375 C 9.445312 -40.390625 13.039062 -41.46875 17.46875 -41.46875 C 21.96875 -41.46875 25.597656 -40.390625 28.359375 -38.234375 C 31.117188 -36.078125 32.59375 -33.078125 32.78125 -29.234375 L 22.015625 -29.234375 C 21.929688 -30.554688 21.441406 -31.59375 20.546875 -32.34375 C 19.660156 -33.101562 18.519531 -33.484375 17.125 -33.484375 C 15.914062 -33.484375 14.941406 -33.160156 14.203125 -32.515625 C 13.472656 -31.878906 13.109375 -30.957031 13.109375 -29.75 C 13.109375 -28.4375 13.726562 -27.410156 14.96875 -26.671875 C 16.207031 -25.929688 18.148438 -25.132812 20.796875 -24.28125 C 23.429688 -23.382812 25.570312 -22.53125 27.21875 -21.71875 C 28.875 -20.90625 30.300781 -19.722656 31.5 -18.171875 C 32.707031 -16.617188 33.3125 -14.617188 33.3125 -12.171875 C 33.3125 -9.835938 32.71875 -7.71875 31.53125 -5.8125 C 30.34375 -3.914062 28.625 -2.40625 26.375 -1.28125 C 24.125 -0.15625 21.46875 0.40625 18.40625 0.40625 Z M 18.40625 0.40625 "/></g></g></g><g fill="#202020" fill-opacity="1"><g transform="translate(158.429449, 85.700932)"><g><path d="M 8.625 -35.875 C 6.875 -35.875 5.441406 -36.382812 4.328125 -37.40625 C 3.222656 -38.4375 2.671875 -39.710938 2.671875 -41.234375 C 2.671875 -42.785156 3.222656 -44.070312 4.328125 -45.09375 C 5.441406 -46.125 6.875 -46.640625 8.625 -46.640625 C 10.332031 -46.640625 11.738281 -46.125 12.84375 -45.09375 C 13.945312 -44.070312 14.5 -42.785156 14.5 -41.234375 C 14.5 -39.710938 13.945312 -38.4375 12.84375 -37.40625 C 11.738281 -36.382812 10.332031 -35.875 8.625 -35.875 Z M 13.5625 -32.5 L 13.5625 0 L 3.609375 0 L 3.609375 -32.5 Z M 13.5625 -32.5 "/></g></g></g><g fill="#202020" fill-opacity="1"><g transform="translate(175.607988, 85.700932)"><g><path d="M 18.234375 -9.3125 L 25.28125 -32.5 L 35.875 -32.5 L 24.34375 0 L 12.046875 0 L 0.53125 -32.5 L 11.1875 -32.5 Z M 18.234375 -9.3125 "/></g></g></g><g fill="#202020" fill-opacity="1"><g transform="translate(212.061443, 85.700932)"><g><path d="M 1.625 -16.3125 C 1.625 -19.644531 2.253906 -22.570312 3.515625 -25.09375 C 4.785156 -27.625 6.503906 -29.566406 8.671875 -30.921875 C 10.847656 -32.273438 13.273438 -32.953125 15.953125 -32.953125 C 18.242188 -32.953125 20.253906 -32.488281 21.984375 -31.5625 C 23.710938 -30.632812 25.039062 -29.410156 25.96875 -27.890625 L 25.96875 -32.5 L 35.9375 -32.5 L 35.9375 0 L 25.96875 0 L 25.96875 -4.59375 C 25 -3.082031 23.648438 -1.859375 21.921875 -0.921875 C 20.191406 0.00390625 18.179688 0.46875 15.890625 0.46875 C 13.253906 0.46875 10.847656 -0.21875 8.671875 -1.59375 C 6.503906 -2.976562 4.785156 -4.941406 3.515625 -7.484375 C 2.253906 -10.023438 1.625 -12.96875 1.625 -16.3125 Z M 25.96875 -16.25 C 25.96875 -18.726562 25.28125 -20.6875 23.90625 -22.125 C 22.53125 -23.5625 20.851562 -24.28125 18.875 -24.28125 C 16.882812 -24.28125 15.203125 -23.570312 13.828125 -22.15625 C 12.453125 -20.738281 11.765625 -18.789062 11.765625 -16.3125 C 11.765625 -13.820312 12.453125 -11.847656 13.828125 -10.390625 C 15.203125 -8.941406 16.882812 -8.21875 18.875 -8.21875 C 20.851562 -8.21875 22.53125 -8.929688 23.90625 -10.359375 C 25.28125 -11.796875 25.96875 -13.757812 25.96875 -16.25 Z M 25.96875 -16.25 "/></g></g></g><g fill="#202020" fill-opacity="1"><g transform="translate(251.601205, 85.700932)"><g><path d="M 13.5625 -27.078125 C 14.726562 -28.859375 16.1875 -30.265625 17.9375 -31.296875 C 19.6875 -32.328125 21.628906 -32.84375 23.765625 -32.84375 L 23.765625 -22.296875 L 21.015625 -22.296875 C 18.535156 -22.296875 16.671875 -21.757812 15.421875 -20.6875 C 14.179688 -19.625 13.5625 -17.753906 13.5625 -15.078125 L 13.5625 0 L 3.609375 0 L 3.609375 -32.5 L 13.5625 -32.5 Z M 13.5625 -27.078125 "/></g></g></g><g fill="#202020" fill-opacity="1"><g transform="translate(276.524645, 85.700932)"><g><path d="M 28.359375 -20.96875 C 30.722656 -20.457031 32.625 -19.28125 34.0625 -17.4375 C 35.5 -15.59375 36.21875 -13.488281 36.21875 -11.125 C 36.21875 -7.707031 35.023438 -5 32.640625 -3 C 30.253906 -1 26.925781 0 22.65625 0 L 3.609375 0 L 3.609375 -40.875 L 22.015625 -40.875 C 26.171875 -40.875 29.421875 -39.921875 31.765625 -38.015625 C 34.117188 -36.117188 35.296875 -33.539062 35.296875 -30.28125 C 35.296875 -27.875 34.660156 -25.875 33.390625 -24.28125 C 32.128906 -22.6875 30.453125 -21.582031 28.359375 -20.96875 Z M 13.5625 -24.34375 L 20.09375 -24.34375 C 21.71875 -24.34375 22.96875 -24.703125 23.84375 -25.421875 C 24.71875 -26.140625 25.15625 -27.195312 25.15625 -28.59375 C 25.15625 -29.988281 24.71875 -31.054688 23.84375 -31.796875 C 22.96875 -32.535156 21.71875 -32.90625 20.09375 -32.90625 L 13.5625 -32.90625 Z M 20.90625 -8.03125 C 22.570312 -8.03125 23.859375 -8.410156 24.765625 -9.171875 C 25.679688 -9.929688 26.140625 -11.03125 26.140625 -12.46875 C 26.140625 -13.894531 25.664062 -15.015625 24.71875 -15.828125 C 23.769531 -16.648438 22.460938 -17.0625 20.796875 -17.0625 L 13.5625 -17.0625 L 13.5625 -8.03125 Z M 20.90625 -8.03125 "/></g></g></g><g fill="#202020" fill-opacity="1"><g transform="translate(314.899779, 85.700932)"><g><path d="M 18.40625 0.46875 C 15.21875 0.46875 12.351562 -0.207031 9.8125 -1.5625 C 7.269531 -2.925781 5.269531 -4.867188 3.8125 -7.390625 C 2.351562 -9.921875 1.625 -12.875 1.625 -16.25 C 1.625 -19.582031 2.363281 -22.519531 3.84375 -25.0625 C 5.320312 -27.613281 7.34375 -29.566406 9.90625 -30.921875 C 12.46875 -32.273438 15.335938 -32.953125 18.515625 -32.953125 C 21.703125 -32.953125 24.578125 -32.273438 27.140625 -30.921875 C 29.703125 -29.566406 31.71875 -27.613281 33.1875 -25.0625 C 34.664062 -22.519531 35.40625 -19.582031 35.40625 -16.25 C 35.40625 -12.90625 34.65625 -9.960938 33.15625 -7.421875 C 31.664062 -4.878906 29.628906 -2.925781 27.046875 -1.5625 C 24.460938 -0.207031 21.582031 0.46875 18.40625 0.46875 Z M 18.40625 -8.15625 C 20.300781 -8.15625 21.921875 -8.851562 23.265625 -10.25 C 24.609375 -11.644531 25.28125 -13.644531 25.28125 -16.25 C 25.28125 -18.851562 24.628906 -20.851562 23.328125 -22.25 C 22.023438 -23.644531 20.421875 -24.34375 18.515625 -24.34375 C 16.578125 -24.34375 14.96875 -23.648438 13.6875 -22.265625 C 12.40625 -20.890625 11.765625 -18.882812 11.765625 -16.25 C 11.765625 -13.644531 12.394531 -11.644531 13.65625 -10.25 C 14.914062 -8.851562 16.5 -8.15625 18.40625 -8.15625 Z M 18.40625 -8.15625 "/></g></g></g><g fill="#202020" fill-opacity="1"><g transform="translate(351.993786, 85.700932)"><g><path d="M 18.40625 0.46875 C 15.21875 0.46875 12.351562 -0.207031 9.8125 -1.5625 C 7.269531 -2.925781 5.269531 -4.867188 3.8125 -7.390625 C 2.351562 -9.921875 1.625 -12.875 1.625 -16.25 C 1.625 -19.582031 2.363281 -22.519531 3.84375 -25.0625 C 5.320312 -27.613281 7.34375 -29.566406 9.90625 -30.921875 C 12.46875 -32.273438 15.335938 -32.953125 18.515625 -32.953125 C 21.703125 -32.953125 24.578125 -32.273438 27.140625 -30.921875 C 29.703125 -29.566406 31.71875 -27.613281 33.1875 -25.0625 C 34.664062 -22.519531 35.40625 -19.582031 35.40625 -16.25 C 35.40625 -12.90625 34.65625 -9.960938 33.15625 -7.421875 C 31.664062 -4.878906 29.628906 -2.925781 27.046875 -1.5625 C 24.460938 -0.207031 21.582031 0.46875 18.40625 0.46875 Z M 18.40625 -8.15625 C 20.300781 -8.15625 21.921875 -8.851562 23.265625 -10.25 C 24.609375 -11.644531 25.28125 -13.644531 25.28125 -16.25 C 25.28125 -18.851562 24.628906 -20.851562 23.328125 -22.25 C 22.023438 -23.644531 20.421875 -24.34375 18.515625 -24.34375 C 16.578125 -24.34375 14.96875 -23.648438 13.6875 -22.265625 C 12.40625 -20.890625 11.765625 -18.882812 11.765625 -16.25 C 11.765625 -13.644531 12.394531 -11.644531 13.65625 -10.25 C 14.914062 -8.851562 16.5 -8.15625 18.40625 -8.15625 Z M 18.40625 -8.15625 "/></g></g></g><g fill="#202020" fill-opacity="1"><g transform="translate(389.087793, 85.700932)"><g><path d="M 23.46875 0 L 13.5625 -13.625 L 13.5625 0 L 3.609375 0 L 3.609375 -43.09375 L 13.5625 -43.09375 L 13.5625 -19.28125 L 23.40625 -32.5 L 35.703125 -32.5 L 22.1875 -16.1875 L 35.8125 0 Z M 23.46875 0 "/></g></g></g><g fill="#202020" fill-opacity="1"><g transform="translate(133.216647, 114.539603)"><g><path d="M 12.3125 -10.859375 L 12.3125 0 L 10.875 0 L 10.875 -8.109375 L 7.265625 0 L 6.265625 0 L 2.640625 -8.125 L 2.640625 0 L 1.203125 0 L 1.203125 -10.859375 L 2.75 -10.859375 L 6.765625 -1.890625 L 10.78125 -10.859375 Z M 12.3125 -10.859375 "/></g></g></g><g fill="#202020" fill-opacity="1"><g transform="translate(147.852166, 114.539603)"><g><path d="M 0.671875 -4.328125 C 0.671875 -5.210938 0.847656 -5.984375 1.203125 -6.640625 C 1.566406 -7.304688 2.054688 -7.820312 2.671875 -8.1875 C 3.296875 -8.5625 3.992188 -8.75 4.765625 -8.75 C 5.515625 -8.75 6.164062 -8.582031 6.71875 -8.25 C 7.269531 -7.925781 7.6875 -7.519531 7.96875 -7.03125 L 7.96875 -8.609375 L 9.40625 -8.609375 L 9.40625 0 L 7.96875 0 L 7.96875 -1.609375 C 7.675781 -1.097656 7.25 -0.675781 6.6875 -0.34375 C 6.132812 -0.0195312 5.488281 0.140625 4.75 0.140625 C 3.976562 0.140625 3.285156 -0.046875 2.671875 -0.421875 C 2.054688 -0.796875 1.566406 -1.320312 1.203125 -2 C 0.847656 -2.6875 0.671875 -3.460938 0.671875 -4.328125 Z M 7.96875 -4.3125 C 7.96875 -4.96875 7.832031 -5.535156 7.5625 -6.015625 C 7.300781 -6.492188 6.945312 -6.859375 6.5 -7.109375 C 6.0625 -7.367188 5.578125 -7.5 5.046875 -7.5 C 4.503906 -7.5 4.015625 -7.375 3.578125 -7.125 C 3.140625 -6.875 2.789062 -6.507812 2.53125 -6.03125 C 2.269531 -5.550781 2.140625 -4.984375 2.140625 -4.328125 C 2.140625 -3.671875 2.269531 -3.097656 2.53125 -2.609375 C 2.789062 -2.128906 3.140625 -1.757812 3.578125 -1.5 C 4.015625 -1.238281 4.503906 -1.109375 5.046875 -1.109375 C 5.578125 -1.109375 6.0625 -1.238281 6.5 -1.5 C 6.945312 -1.757812 7.300781 -2.128906 7.5625 -2.609375 C 7.832031 -3.097656 7.96875 -3.664062 7.96875 -4.3125 Z M 7.96875 -4.3125 "/></g></g></g><g fill="#202020" fill-opacity="1"><g transform="translate(159.582646, 114.539603)"><g><path d="M 5.40625 -8.765625 C 6.445312 -8.765625 7.289062 -8.445312 7.9375 -7.8125 C 8.59375 -7.175781 8.921875 -6.265625 8.921875 -5.078125 L 8.921875 0 L 7.5 0 L 7.5 -4.875 C 7.5 -5.726562 7.285156 -6.378906 6.859375 -6.828125 C 6.429688 -7.285156 5.847656 -7.515625 5.109375 -7.515625 C 4.347656 -7.515625 3.742188 -7.28125 3.296875 -6.8125 C 2.859375 -6.34375 2.640625 -5.660156 2.640625 -4.765625 L 2.640625 0 L 1.203125 0 L 1.203125 -8.609375 L 2.640625 -8.609375 L 2.640625 -7.375 C 2.921875 -7.820312 3.300781 -8.164062 3.78125 -8.40625 C 4.269531 -8.644531 4.8125 -8.765625 5.40625 -8.765625 Z M 5.40625 -8.765625 "/></g></g></g><g fill="#202020" fill-opacity="1"><g transform="translate(170.747824, 114.539603)"><g><path d="M 9.0625 -4.625 C 9.0625 -4.351562 9.046875 -4.066406 9.015625 -3.765625 L 2.140625 -3.765625 C 2.191406 -2.921875 2.476562 -2.257812 3 -1.78125 C 3.53125 -1.300781 4.175781 -1.0625 4.9375 -1.0625 C 5.550781 -1.0625 6.0625 -1.207031 6.46875 -1.5 C 6.882812 -1.789062 7.175781 -2.175781 7.34375 -2.65625 L 8.890625 -2.65625 C 8.660156 -1.820312 8.195312 -1.144531 7.5 -0.625 C 6.8125 -0.113281 5.957031 0.140625 4.9375 0.140625 C 4.113281 0.140625 3.378906 -0.0390625 2.734375 -0.40625 C 2.097656 -0.769531 1.59375 -1.289062 1.21875 -1.96875 C 0.851562 -2.644531 0.671875 -3.425781 0.671875 -4.3125 C 0.671875 -5.207031 0.847656 -5.988281 1.203125 -6.65625 C 1.566406 -7.320312 2.066406 -7.835938 2.703125 -8.203125 C 3.347656 -8.566406 4.09375 -8.75 4.9375 -8.75 C 5.75 -8.75 6.46875 -8.566406 7.09375 -8.203125 C 7.726562 -7.847656 8.210938 -7.359375 8.546875 -6.734375 C 8.890625 -6.117188 9.0625 -5.414062 9.0625 -4.625 Z M 7.578125 -4.9375 C 7.578125 -5.476562 7.457031 -5.941406 7.21875 -6.328125 C 6.976562 -6.722656 6.648438 -7.019531 6.234375 -7.21875 C 5.828125 -7.425781 5.375 -7.53125 4.875 -7.53125 C 4.144531 -7.53125 3.523438 -7.300781 3.015625 -6.84375 C 2.515625 -6.382812 2.226562 -5.75 2.15625 -4.9375 Z M 7.578125 -4.9375 "/></g></g></g><g fill="#202020" fill-opacity="1"><g transform="translate(181.598943, 114.539603)"><g><path d="M 2.640625 -7.203125 C 2.890625 -7.703125 3.242188 -8.085938 3.703125 -8.359375 C 4.171875 -8.628906 4.742188 -8.765625 5.421875 -8.765625 L 5.421875 -7.28125 L 5.046875 -7.28125 C 3.441406 -7.28125 2.640625 -6.410156 2.640625 -4.671875 L 2.640625 0 L 1.203125 0 L 1.203125 -8.609375 L 2.640625 -8.609375 Z M 2.640625 -7.203125 "/></g></g></g><g fill="#202020" fill-opacity="1"><g transform="translate(188.57144, 114.539603)"><g><path d="M 0.671875 -4.328125 C 0.671875 -5.210938 0.847656 -5.984375 1.203125 -6.640625 C 1.566406 -7.304688 2.054688 -7.820312 2.671875 -8.1875 C 3.296875 -8.5625 3.992188 -8.75 4.765625 -8.75 C 5.515625 -8.75 6.164062 -8.582031 6.71875 -8.25 C 7.269531 -7.925781 7.6875 -7.519531 7.96875 -7.03125 L 7.96875 -8.609375 L 9.40625 -8.609375 L 9.40625 0 L 7.96875 0 L 7.96875 -1.609375 C 7.675781 -1.097656 7.25 -0.675781 6.6875 -0.34375 C 6.132812 -0.0195312 5.488281 0.140625 4.75 0.140625 C 3.976562 0.140625 3.285156 -0.046875 2.671875 -0.421875 C 2.054688 -0.796875 1.566406 -1.320312 1.203125 -2 C 0.847656 -2.6875 0.671875 -3.460938 0.671875 -4.328125 Z M 7.96875 -4.3125 C 7.96875 -4.96875 7.832031 -5.535156 7.5625 -6.015625 C 7.300781 -6.492188 6.945312 -6.859375 6.5 -7.109375 C 6.0625 -7.367188 5.578125 -7.5 5.046875 -7.5 C 4.503906 -7.5 4.015625 -7.375 3.578125 -7.125 C 3.140625 -6.875 2.789062 -6.507812 2.53125 -6.03125 C 2.269531 -5.550781 2.140625 -4.984375 2.140625 -4.328125 C 2.140625 -3.671875 2.269531 -3.097656 2.53125 -2.609375 C 2.789062 -2.128906 3.140625 -1.757812 3.578125 -1.5 C 4.015625 -1.238281 4.503906 -1.109375 5.046875 -1.109375 C 5.578125 -1.109375 6.0625 -1.238281 6.5 -1.5 C 6.945312 -1.757812 7.300781 -2.128906 7.5625 -2.609375 C 7.832031 -3.097656 7.96875 -3.664062 7.96875 -4.3125 Z M 7.96875 -4.3125 "/></g></g></g><g fill="#202020" fill-opacity="1"><g transform="translate(200.301919, 114.539603)"><g><path d="M 4.25 0.140625 C 3.59375 0.140625 3.003906 0.03125 2.484375 -0.1875 C 1.960938 -0.414062 1.546875 -0.734375 1.234375 -1.140625 C 0.929688 -1.546875 0.765625 -2.007812 0.734375 -2.53125 L 2.21875 -2.53125 C 2.257812 -2.101562 2.457031 -1.75 2.8125 -1.46875 C 3.175781 -1.195312 3.648438 -1.0625 4.234375 -1.0625 C 4.785156 -1.0625 5.21875 -1.179688 5.53125 -1.421875 C 5.84375 -1.671875 6 -1.976562 6 -2.34375 C 6 -2.71875 5.832031 -2.992188 5.5 -3.171875 C 5.164062 -3.359375 4.644531 -3.539062 3.9375 -3.71875 C 3.300781 -3.882812 2.78125 -4.050781 2.375 -4.21875 C 1.976562 -4.394531 1.632812 -4.65625 1.34375 -5 C 1.050781 -5.34375 0.90625 -5.789062 0.90625 -6.34375 C 0.90625 -6.78125 1.035156 -7.179688 1.296875 -7.546875 C 1.566406 -7.921875 1.941406 -8.210938 2.421875 -8.421875 C 2.898438 -8.640625 3.445312 -8.75 4.0625 -8.75 C 5.019531 -8.75 5.789062 -8.503906 6.375 -8.015625 C 6.957031 -7.535156 7.269531 -6.878906 7.3125 -6.046875 L 5.890625 -6.046875 C 5.859375 -6.492188 5.675781 -6.851562 5.34375 -7.125 C 5.019531 -7.394531 4.578125 -7.53125 4.015625 -7.53125 C 3.503906 -7.53125 3.097656 -7.421875 2.796875 -7.203125 C 2.492188 -6.984375 2.34375 -6.695312 2.34375 -6.34375 C 2.34375 -6.0625 2.429688 -5.828125 2.609375 -5.640625 C 2.796875 -5.460938 3.023438 -5.316406 3.296875 -5.203125 C 3.578125 -5.097656 3.960938 -4.976562 4.453125 -4.84375 C 5.078125 -4.664062 5.582031 -4.492188 5.96875 -4.328125 C 6.351562 -4.171875 6.679688 -3.929688 6.953125 -3.609375 C 7.234375 -3.285156 7.378906 -2.863281 7.390625 -2.34375 C 7.390625 -1.875 7.257812 -1.445312 7 -1.0625 C 6.738281 -0.6875 6.367188 -0.390625 5.890625 -0.171875 C 5.421875 0.0351562 4.875 0.140625 4.25 0.140625 Z M 4.25 0.140625 "/></g></g></g><g fill="#202020" fill-opacity="1"><g transform="translate(209.614155, 114.539603)"><g/></g></g><g fill="#202020" fill-opacity="1"><g transform="translate(214.922154, 114.539603)"><g><path d="M 0.671875 -4.328125 C 0.671875 -5.210938 0.847656 -5.984375 1.203125 -6.640625 C 1.566406 -7.304688 2.054688 -7.820312 2.671875 -8.1875 C 3.296875 -8.5625 4 -8.75 4.78125 -8.75 C 5.445312 -8.75 6.066406 -8.59375 6.640625 -8.28125 C 7.210938 -7.96875 7.65625 -7.5625 7.96875 -7.0625 L 7.96875 -11.625 L 9.40625 -11.625 L 9.40625 0 L 7.96875 0 L 7.96875 -1.625 C 7.675781 -1.101562 7.253906 -0.675781 6.703125 -0.34375 C 6.148438 -0.0195312 5.503906 0.140625 4.765625 0.140625 C 3.992188 0.140625 3.296875 -0.046875 2.671875 -0.421875 C 2.054688 -0.796875 1.566406 -1.320312 1.203125 -2 C 0.847656 -2.6875 0.671875 -3.460938 0.671875 -4.328125 Z M 7.96875 -4.3125 C 7.96875 -4.96875 7.832031 -5.535156 7.5625 -6.015625 C 7.300781 -6.492188 6.945312 -6.859375 6.5 -7.109375 C 6.0625 -7.367188 5.578125 -7.5 5.046875 -7.5 C 4.503906 -7.5 4.015625 -7.375 3.578125 -7.125 C 3.140625 -6.875 2.789062 -6.507812 2.53125 -6.03125 C 2.269531 -5.550781 2.140625 -4.984375 2.140625 -4.328125 C 2.140625 -3.671875 2.269531 -3.097656 2.53125 -2.609375 C 2.789062 -2.128906 3.140625 -1.757812 3.578125 -1.5 C 4.015625 -1.238281 4.503906 -1.109375 5.046875 -1.109375 C 5.578125 -1.109375 6.0625 -1.238281 6.5 -1.5 C 6.945312 -1.757812 7.300781 -2.128906 7.5625 -2.609375 C 7.832031 -3.097656 7.96875 -3.664062 7.96875 -4.3125 Z M 7.96875 -4.3125 "/></g></g></g><g fill="#202020" fill-opacity="1"><g transform="translate(226.652634, 114.539603)"><g><path d="M 9.0625 -4.625 C 9.0625 -4.351562 9.046875 -4.066406 9.015625 -3.765625 L 2.140625 -3.765625 C 2.191406 -2.921875 2.476562 -2.257812 3 -1.78125 C 3.53125 -1.300781 4.175781 -1.0625 4.9375 -1.0625 C 5.550781 -1.0625 6.0625 -1.207031 6.46875 -1.5 C 6.882812 -1.789062 7.175781 -2.175781 7.34375 -2.65625 L 8.890625 -2.65625 C 8.660156 -1.820312 8.195312 -1.144531 7.5 -0.625 C 6.8125 -0.113281 5.957031 0.140625 4.9375 0.140625 C 4.113281 0.140625 3.378906 -0.0390625 2.734375 -0.40625 C 2.097656 -0.769531 1.59375 -1.289062 1.21875 -1.96875 C 0.851562 -2.644531 0.671875 -3.425781 0.671875 -4.3125 C 0.671875 -5.207031 0.847656 -5.988281 1.203125 -6.65625 C 1.566406 -7.320312 2.066406 -7.835938 2.703125 -8.203125 C 3.347656 -8.566406 4.09375 -8.75 4.9375 -8.75 C 5.75 -8.75 6.46875 -8.566406 7.09375 -8.203125 C 7.726562 -7.847656 8.210938 -7.359375 8.546875 -6.734375 C 8.890625 -6.117188 9.0625 -5.414062 9.0625 -4.625 Z M 7.578125 -4.9375 C 7.578125 -5.476562 7.457031 -5.941406 7.21875 -6.328125 C 6.976562 -6.722656 6.648438 -7.019531 6.234375 -7.21875 C 5.828125 -7.425781 5.375 -7.53125 4.875 -7.53125 C 4.144531 -7.53125 3.523438 -7.300781 3.015625 -6.84375 C 2.515625 -6.382812 2.226562 -5.75 2.15625 -4.9375 Z M 7.578125 -4.9375 "/></g></g></g><g fill="#202020" fill-opacity="1"><g transform="translate(237.503753, 114.539603)"><g/></g></g><g fill="#202020" fill-opacity="1"><g transform="translate(242.811757, 114.539603)"><g><path d="M 2.640625 -7.203125 C 2.890625 -7.703125 3.242188 -8.085938 3.703125 -8.359375 C 4.171875 -8.628906 4.742188 -8.765625 5.421875 -8.765625 L 5.421875 -7.28125 L 5.046875 -7.28125 C 3.441406 -7.28125 2.640625 -6.410156 2.640625 -4.671875 L 2.640625 0 L 1.203125 0 L 1.203125 -8.609375 L 2.640625 -8.609375 Z M 2.640625 -7.203125 "/></g></g></g><g fill="#202020" fill-opacity="1"><g transform="translate(249.78426, 114.539603)"><g><path d="M 9.0625 -4.625 C 9.0625 -4.351562 9.046875 -4.066406 9.015625 -3.765625 L 2.140625 -3.765625 C 2.191406 -2.921875 2.476562 -2.257812 3 -1.78125 C 3.53125 -1.300781 4.175781 -1.0625 4.9375 -1.0625 C 5.550781 -1.0625 6.0625 -1.207031 6.46875 -1.5 C 6.882812 -1.789062 7.175781 -2.175781 7.34375 -2.65625 L 8.890625 -2.65625 C 8.660156 -1.820312 8.195312 -1.144531 7.5 -0.625 C 6.8125 -0.113281 5.957031 0.140625 4.9375 0.140625 C 4.113281 0.140625 3.378906 -0.0390625 2.734375 -0.40625 C 2.097656 -0.769531 1.59375 -1.289062 1.21875 -1.96875 C 0.851562 -2.644531 0.671875 -3.425781 0.671875 -4.3125 C 0.671875 -5.207031 0.847656 -5.988281 1.203125 -6.65625 C 1.566406 -7.320312 2.066406 -7.835938 2.703125 -8.203125 C 3.347656 -8.566406 4.09375 -8.75 4.9375 -8.75 C 5.75 -8.75 6.46875 -8.566406 7.09375 -8.203125 C 7.726562 -7.847656 8.210938 -7.359375 8.546875 -6.734375 C 8.890625 -6.117188 9.0625 -5.414062 9.0625 -4.625 Z M 7.578125 -4.9375 C 7.578125 -5.476562 7.457031 -5.941406 7.21875 -6.328125 C 6.976562 -6.722656 6.648438 -7.019531 6.234375 -7.21875 C 5.828125 -7.425781 5.375 -7.53125 4.875 -7.53125 C 4.144531 -7.53125 3.523438 -7.300781 3.015625 -6.84375 C 2.515625 -6.382812 2.226562 -5.75 2.15625 -4.9375 Z M 7.578125 -4.9375 "/></g></g></g><g fill="#202020" fill-opacity="1"><g transform="translate(260.635384, 114.539603)"><g><path d="M 0.671875 -4.3125 C 0.671875 -5.207031 0.847656 -5.984375 1.203125 -6.640625 C 1.566406 -7.304688 2.0625 -7.820312 2.6875 -8.1875 C 3.320312 -8.5625 4.050781 -8.75 4.875 -8.75 C 5.925781 -8.75 6.796875 -8.488281 7.484375 -7.96875 C 8.171875 -7.457031 8.625 -6.75 8.84375 -5.84375 L 7.296875 -5.84375 C 7.148438 -6.363281 6.863281 -6.773438 6.4375 -7.078125 C 6.019531 -7.378906 5.5 -7.53125 4.875 -7.53125 C 4.050781 -7.53125 3.390625 -7.25 2.890625 -6.6875 C 2.390625 -6.132812 2.140625 -5.34375 2.140625 -4.3125 C 2.140625 -3.28125 2.390625 -2.476562 2.890625 -1.90625 C 3.390625 -1.34375 4.050781 -1.0625 4.875 -1.0625 C 5.5 -1.0625 6.019531 -1.207031 6.4375 -1.5 C 6.851562 -1.800781 7.140625 -2.222656 7.296875 -2.765625 L 8.84375 -2.765625 C 8.613281 -1.878906 8.148438 -1.171875 7.453125 -0.640625 C 6.765625 -0.117188 5.90625 0.140625 4.875 0.140625 C 4.050781 0.140625 3.320312 -0.0390625 2.6875 -0.40625 C 2.0625 -0.769531 1.566406 -1.285156 1.203125 -1.953125 C 0.847656 -2.628906 0.671875 -3.414062 0.671875 -4.3125 Z M 0.671875 -4.3125 "/></g></g></g><g fill="#202020" fill-opacity="1"><g transform="translate(271.282368, 114.539603)"><g><path d="M 4.96875 0.140625 C 4.15625 0.140625 3.421875 -0.0390625 2.765625 -0.40625 C 2.117188 -0.769531 1.609375 -1.289062 1.234375 -1.96875 C 0.859375 -2.644531 0.671875 -3.425781 0.671875 -4.3125 C 0.671875 -5.195312 0.863281 -5.972656 1.25 -6.640625 C 1.632812 -7.316406 2.15625 -7.835938 2.8125 -8.203125 C 3.46875 -8.566406 4.207031 -8.75 5.03125 -8.75 C 5.84375 -8.75 6.578125 -8.566406 7.234375 -8.203125 C 7.898438 -7.835938 8.421875 -7.320312 8.796875 -6.65625 C 9.179688 -5.988281 9.375 -5.207031 9.375 -4.3125 C 9.375 -3.425781 9.175781 -2.644531 8.78125 -1.96875 C 8.394531 -1.289062 7.863281 -0.769531 7.1875 -0.40625 C 6.519531 -0.0390625 5.78125 0.140625 4.96875 0.140625 Z M 4.96875 -1.109375 C 5.476562 -1.109375 5.957031 -1.226562 6.40625 -1.46875 C 6.851562 -1.71875 7.21875 -2.082031 7.5 -2.5625 C 7.78125 -3.039062 7.921875 -3.625 7.921875 -4.3125 C 7.921875 -5.007812 7.78125 -5.597656 7.5 -6.078125 C 7.226562 -6.554688 6.875 -6.910156 6.4375 -7.140625 C 6 -7.378906 5.523438 -7.5 5.015625 -7.5 C 4.484375 -7.5 4 -7.378906 3.5625 -7.140625 C 3.132812 -6.910156 2.789062 -6.554688 2.53125 -6.078125 C 2.269531 -5.597656 2.140625 -5.007812 2.140625 -4.3125 C 2.140625 -3.613281 2.265625 -3.023438 2.515625 -2.546875 C 2.773438 -2.066406 3.117188 -1.707031 3.546875 -1.46875 C 3.972656 -1.226562 4.445312 -1.109375 4.96875 -1.109375 Z M 4.96875 -1.109375 "/></g></g></g><g fill="#202020" fill-opacity="1"><g transform="translate(282.447552, 114.539603)"><g><path d="M 2.640625 -7.203125 C 2.890625 -7.703125 3.242188 -8.085938 3.703125 -8.359375 C 4.171875 -8.628906 4.742188 -8.765625 5.421875 -8.765625 L 5.421875 -7.28125 L 5.046875 -7.28125 C 3.441406 -7.28125 2.640625 -6.410156 2.640625 -4.671875 L 2.640625 0 L 1.203125 0 L 1.203125 -8.609375 L 2.640625 -8.609375 Z M 2.640625 -7.203125 "/></g></g></g><g fill="#202020" fill-opacity="1"><g transform="translate(289.420055, 114.539603)"><g><path d="M 2.640625 -7.203125 C 2.890625 -7.703125 3.242188 -8.085938 3.703125 -8.359375 C 4.171875 -8.628906 4.742188 -8.765625 5.421875 -8.765625 L 5.421875 -7.28125 L 5.046875 -7.28125 C 3.441406 -7.28125 2.640625 -6.410156 2.640625 -4.671875 L 2.640625 0 L 1.203125 0 L 1.203125 -8.609375 L 2.640625 -8.609375 Z M 2.640625 -7.203125 "/></g></g></g><g fill="#202020" fill-opacity="1"><g transform="translate(296.392557, 114.539603)"><g><path d="M 9.0625 -4.625 C 9.0625 -4.351562 9.046875 -4.066406 9.015625 -3.765625 L 2.140625 -3.765625 C 2.191406 -2.921875 2.476562 -2.257812 3 -1.78125 C 3.53125 -1.300781 4.175781 -1.0625 4.9375 -1.0625 C 5.550781 -1.0625 6.0625 -1.207031 6.46875 -1.5 C 6.882812 -1.789062 7.175781 -2.175781 7.34375 -2.65625 L 8.890625 -2.65625 C 8.660156 -1.820312 8.195312 -1.144531 7.5 -0.625 C 6.8125 -0.113281 5.957031 0.140625 4.9375 0.140625 C 4.113281 0.140625 3.378906 -0.0390625 2.734375 -0.40625 C 2.097656 -0.769531 1.59375 -1.289062 1.21875 -1.96875 C 0.851562 -2.644531 0.671875 -3.425781 0.671875 -4.3125 C 0.671875 -5.207031 0.847656 -5.988281 1.203125 -6.65625 C 1.566406 -7.320312 2.066406 -7.835938 2.703125 -8.203125 C 3.347656 -8.566406 4.09375 -8.75 4.9375 -8.75 C 5.75 -8.75 6.46875 -8.566406 7.09375 -8.203125 C 7.726562 -7.847656 8.210938 -7.359375 8.546875 -6.734375 C 8.890625 -6.117188 9.0625 -5.414062 9.0625 -4.625 Z M 7.578125 -4.9375 C 7.578125 -5.476562 7.457031 -5.941406 7.21875 -6.328125 C 6.976562 -6.722656 6.648438 -7.019531 6.234375 -7.21875 C 5.828125 -7.425781 5.375 -7.53125 4.875 -7.53125 C 4.144531 -7.53125 3.523438 -7.300781 3.015625 -6.84375 C 2.515625 -6.382812 2.226562 -5.75 2.15625 -4.9375 Z M 7.578125 -4.9375 "/></g></g></g><g fill="#202020" fill-opacity="1"><g transform="translate(307.243682, 114.539603)"><g><path d="M 2.640625 -7.203125 C 2.890625 -7.703125 3.242188 -8.085938 3.703125 -8.359375 C 4.171875 -8.628906 4.742188 -8.765625 5.421875 -8.765625 L 5.421875 -7.28125 L 5.046875 -7.28125 C 3.441406 -7.28125 2.640625 -6.410156 2.640625 -4.671875 L 2.640625 0 L 1.203125 0 L 1.203125 -8.609375 L 2.640625 -8.609375 Z M 2.640625 -7.203125 "/></g></g></g><g fill="#202020" fill-opacity="1"><g transform="translate(314.216184, 114.539603)"><g/></g></g><g fill="#202020" fill-opacity="1"><g transform="translate(319.524189, 114.539603)"><g><path d="M 2.640625 -9.78125 L 2.640625 -6.125 L 6.625 -6.125 L 6.625 -4.953125 L 2.640625 -4.953125 L 2.640625 -1.171875 L 7.09375 -1.171875 L 7.09375 0 L 1.203125 0 L 1.203125 -10.953125 L 7.09375 -10.953125 L 7.09375 -9.78125 Z M 2.640625 -9.78125 "/></g></g></g><g fill="#202020" fill-opacity="1"><g transform="translate(328.695097, 114.539603)"><g><path d="M 2.640625 -11.625 L 2.640625 0 L 1.203125 0 L 1.203125 -11.625 Z M 2.640625 -11.625 "/></g></g></g><g fill="#202020" fill-opacity="1"><g transform="translate(333.673323, 114.539603)"><g/></g></g><g fill="#202020" fill-opacity="1"><g transform="translate(338.981328, 114.539603)"><g><path d="M 4.671875 0.109375 C 3.953125 0.109375 3.304688 -0.015625 2.734375 -0.265625 C 2.171875 -0.523438 1.722656 -0.882812 1.390625 -1.34375 C 1.066406 -1.800781 0.898438 -2.328125 0.890625 -2.921875 L 2.421875 -2.921875 C 2.472656 -2.410156 2.679688 -1.976562 3.046875 -1.625 C 3.421875 -1.269531 3.960938 -1.09375 4.671875 -1.09375 C 5.359375 -1.09375 5.894531 -1.265625 6.28125 -1.609375 C 6.675781 -1.953125 6.875 -2.390625 6.875 -2.921875 C 6.875 -3.335938 6.757812 -3.675781 6.53125 -3.9375 C 6.300781 -4.195312 6.015625 -4.394531 5.671875 -4.53125 C 5.328125 -4.675781 4.859375 -4.828125 4.265625 -4.984375 C 3.546875 -5.171875 2.96875 -5.359375 2.53125 -5.546875 C 2.101562 -5.734375 1.734375 -6.023438 1.421875 -6.421875 C 1.109375 -6.828125 0.953125 -7.375 0.953125 -8.0625 C 0.953125 -8.65625 1.101562 -9.179688 1.40625 -9.640625 C 1.71875 -10.097656 2.144531 -10.453125 2.6875 -10.703125 C 3.238281 -10.960938 3.867188 -11.09375 4.578125 -11.09375 C 5.609375 -11.09375 6.453125 -10.832031 7.109375 -10.3125 C 7.765625 -9.800781 8.132812 -9.125 8.21875 -8.28125 L 6.640625 -8.28125 C 6.585938 -8.695312 6.367188 -9.0625 5.984375 -9.375 C 5.597656 -9.695312 5.082031 -9.859375 4.4375 -9.859375 C 3.84375 -9.859375 3.359375 -9.703125 2.984375 -9.390625 C 2.609375 -9.085938 2.421875 -8.660156 2.421875 -8.109375 C 2.421875 -7.703125 2.53125 -7.375 2.75 -7.125 C 2.976562 -6.875 3.253906 -6.679688 3.578125 -6.546875 C 3.910156 -6.421875 4.378906 -6.273438 4.984375 -6.109375 C 5.703125 -5.910156 6.28125 -5.710938 6.71875 -5.515625 C 7.15625 -5.328125 7.53125 -5.03125 7.84375 -4.625 C 8.164062 -4.21875 8.328125 -3.671875 8.328125 -2.984375 C 8.328125 -2.453125 8.179688 -1.945312 7.890625 -1.46875 C 7.609375 -1 7.191406 -0.617188 6.640625 -0.328125 C 6.085938 -0.0351562 5.429688 0.109375 4.671875 0.109375 Z M 4.671875 0.109375 "/></g></g></g><g fill="#202020" fill-opacity="1"><g transform="translate(349.314263, 114.539603)"><g><path d="M 0.671875 -4.328125 C 0.671875 -5.210938 0.847656 -5.984375 1.203125 -6.640625 C 1.566406 -7.304688 2.054688 -7.820312 2.671875 -8.1875 C 3.296875 -8.5625 3.992188 -8.75 4.765625 -8.75 C 5.515625 -8.75 6.164062 -8.582031 6.71875 -8.25 C 7.269531 -7.925781 7.6875 -7.519531 7.96875 -7.03125 L 7.96875 -8.609375 L 9.40625 -8.609375 L 9.40625 0 L 7.96875 0 L 7.96875 -1.609375 C 7.675781 -1.097656 7.25 -0.675781 6.6875 -0.34375 C 6.132812 -0.0195312 5.488281 0.140625 4.75 0.140625 C 3.976562 0.140625 3.285156 -0.046875 2.671875 -0.421875 C 2.054688 -0.796875 1.566406 -1.320312 1.203125 -2 C 0.847656 -2.6875 0.671875 -3.460938 0.671875 -4.328125 Z M 7.96875 -4.3125 C 7.96875 -4.96875 7.832031 -5.535156 7.5625 -6.015625 C 7.300781 -6.492188 6.945312 -6.859375 6.5 -7.109375 C 6.0625 -7.367188 5.578125 -7.5 5.046875 -7.5 C 4.503906 -7.5 4.015625 -7.375 3.578125 -7.125 C 3.140625 -6.875 2.789062 -6.507812 2.53125 -6.03125 C 2.269531 -5.550781 2.140625 -4.984375 2.140625 -4.328125 C 2.140625 -3.671875 2.269531 -3.097656 2.53125 -2.609375 C 2.789062 -2.128906 3.140625 -1.757812 3.578125 -1.5 C 4.015625 -1.238281 4.503906 -1.109375 5.046875 -1.109375 C 5.578125 -1.109375 6.0625 -1.238281 6.5 -1.5 C 6.945312 -1.757812 7.300781 -2.128906 7.5625 -2.609375 C 7.832031 -3.097656 7.96875 -3.664062 7.96875 -4.3125 Z M 7.96875 -4.3125 "/></g></g></g><g fill="#202020" fill-opacity="1"><g transform="translate(361.044748, 114.539603)"><g><path d="M 2.640625 -11.625 L 2.640625 0 L 1.203125 0 L 1.203125 -11.625 Z M 2.640625 -11.625 "/></g></g></g><g fill="#202020" fill-opacity="1"><g transform="translate(366.022974, 114.539603)"><g><path d="M 4.40625 -1.3125 L 7.078125 -8.609375 L 8.609375 -8.609375 L 5.234375 0 L 3.5625 0 L 0.1875 -8.609375 L 1.734375 -8.609375 Z M 4.40625 -1.3125 "/></g></g></g><g fill="#202020" fill-opacity="1"><g transform="translate(375.947628, 114.539603)"><g><path d="M 0.671875 -4.328125 C 0.671875 -5.210938 0.847656 -5.984375 1.203125 -6.640625 C 1.566406 -7.304688 2.054688 -7.820312 2.671875 -8.1875 C 3.296875 -8.5625 3.992188 -8.75 4.765625 -8.75 C 5.515625 -8.75 6.164062 -8.582031 6.71875 -8.25 C 7.269531 -7.925781 7.6875 -7.519531 7.96875 -7.03125 L 7.96875 -8.609375 L 9.40625 -8.609375 L 9.40625 0 L 7.96875 0 L 7.96875 -1.609375 C 7.675781 -1.097656 7.25 -0.675781 6.6875 -0.34375 C 6.132812 -0.0195312 5.488281 0.140625 4.75 0.140625 C 3.976562 0.140625 3.285156 -0.046875 2.671875 -0.421875 C 2.054688 -0.796875 1.566406 -1.320312 1.203125 -2 C 0.847656 -2.6875 0.671875 -3.460938 0.671875 -4.328125 Z M 7.96875 -4.3125 C 7.96875 -4.96875 7.832031 -5.535156 7.5625 -6.015625 C 7.300781 -6.492188 6.945312 -6.859375 6.5 -7.109375 C 6.0625 -7.367188 5.578125 -7.5 5.046875 -7.5 C 4.503906 -7.5 4.015625 -7.375 3.578125 -7.125 C 3.140625 -6.875 2.789062 -6.507812 2.53125 -6.03125 C 2.269531 -5.550781 2.140625 -4.984375 2.140625 -4.328125 C 2.140625 -3.671875 2.269531 -3.097656 2.53125 -2.609375 C 2.789062 -2.128906 3.140625 -1.757812 3.578125 -1.5 C 4.015625 -1.238281 4.503906 -1.109375 5.046875 -1.109375 C 5.578125 -1.109375 6.0625 -1.238281 6.5 -1.5 C 6.945312 -1.757812 7.300781 -2.128906 7.5625 -2.609375 C 7.832031 -3.097656 7.96875 -3.664062 7.96875 -4.3125 Z M 7.96875 -4.3125 "/></g></g></g><g fill="#202020" fill-opacity="1"><g transform="translate(387.678113, 114.539603)"><g><path d="M 0.671875 -4.328125 C 0.671875 -5.210938 0.847656 -5.984375 1.203125 -6.640625 C 1.566406 -7.304688 2.054688 -7.820312 2.671875 -8.1875 C 3.296875 -8.5625 4 -8.75 4.78125 -8.75 C 5.445312 -8.75 6.066406 -8.59375 6.640625 -8.28125 C 7.210938 -7.96875 7.65625 -7.5625 7.96875 -7.0625 L 7.96875 -11.625 L 9.40625 -11.625 L 9.40625 0 L 7.96875 0 L 7.96875 -1.625 C 7.675781 -1.101562 7.253906 -0.675781 6.703125 -0.34375 C 6.148438 -0.0195312 5.503906 0.140625 4.765625 0.140625 C 3.992188 0.140625 3.296875 -0.046875 2.671875 -0.421875 C 2.054688 -0.796875 1.566406 -1.320312 1.203125 -2 C 0.847656 -2.6875 0.671875 -3.460938 0.671875 -4.328125 Z M 7.96875 -4.3125 C 7.96875 -4.96875 7.832031 -5.535156 7.5625 -6.015625 C 7.300781 -6.492188 6.945312 -6.859375 6.5 -7.109375 C 6.0625 -7.367188 5.578125 -7.5 5.046875 -7.5 C 4.503906 -7.5 4.015625 -7.375 3.578125 -7.125 C 3.140625 -6.875 2.789062 -6.507812 2.53125 -6.03125 C 2.269531 -5.550781 2.140625 -4.984375 2.140625 -4.328125 C 2.140625 -3.671875 2.269531 -3.097656 2.53125 -2.609375 C 2.789062 -2.128906 3.140625 -1.757812 3.578125 -1.5 C 4.015625 -1.238281 4.503906 -1.109375 5.046875 -1.109375 C 5.578125 -1.109375 6.0625 -1.238281 6.5 -1.5 C 6.945312 -1.757812 7.300781 -2.128906 7.5625 -2.609375 C 7.832031 -3.097656 7.96875 -3.664062 7.96875 -4.3125 Z M 7.96875 -4.3125 "/></g></g></g><g fill="#202020" fill-opacity="1"><g transform="translate(399.408598, 114.539603)"><g><path d="M 4.96875 0.140625 C 4.15625 0.140625 3.421875 -0.0390625 2.765625 -0.40625 C 2.117188 -0.769531 1.609375 -1.289062 1.234375 -1.96875 C 0.859375 -2.644531 0.671875 -3.425781 0.671875 -4.3125 C 0.671875 -5.195312 0.863281 -5.972656 1.25 -6.640625 C 1.632812 -7.316406 2.15625 -7.835938 2.8125 -8.203125 C 3.46875 -8.566406 4.207031 -8.75 5.03125 -8.75 C 5.84375 -8.75 6.578125 -8.566406 7.234375 -8.203125 C 7.898438 -7.835938 8.421875 -7.320312 8.796875 -6.65625 C 9.179688 -5.988281 9.375 -5.207031 9.375 -4.3125 C 9.375 -3.425781 9.175781 -2.644531 8.78125 -1.96875 C 8.394531 -1.289062 7.863281 -0.769531 7.1875 -0.40625 C 6.519531 -0.0390625 5.78125 0.140625 4.96875 0.140625 Z M 4.96875 -1.109375 C 5.476562 -1.109375 5.957031 -1.226562 6.40625 -1.46875 C 6.851562 -1.71875 7.21875 -2.082031 7.5 -2.5625 C 7.78125 -3.039062 7.921875 -3.625 7.921875 -4.3125 C 7.921875 -5.007812 7.78125 -5.597656 7.5 -6.078125 C 7.226562 -6.554688 6.875 -6.910156 6.4375 -7.140625 C 6 -7.378906 5.523438 -7.5 5.015625 -7.5 C 4.484375 -7.5 4 -7.378906 3.5625 -7.140625 C 3.132812 -6.910156 2.789062 -6.554688 2.53125 -6.078125 C 2.269531 -5.597656 2.140625 -5.007812 2.140625 -4.3125 C 2.140625 -3.613281 2.265625 -3.023438 2.515625 -2.546875 C 2.773438 -2.066406 3.117188 -1.707031 3.546875 -1.46875 C 3.972656 -1.226562 4.445312 -1.109375 4.96875 -1.109375 Z M 4.96875 -1.109375 "/></g></g></g><g fill="#202020" fill-opacity="1"><g transform="translate(410.573771, 114.539603)"><g><path d="M 2.640625 -7.203125 C 2.890625 -7.703125 3.242188 -8.085938 3.703125 -8.359375 C 4.171875 -8.628906 4.742188 -8.765625 5.421875 -8.765625 L 5.421875 -7.28125 L 5.046875 -7.28125 C 3.441406 -7.28125 2.640625 -6.410156 2.640625 -4.671875 L 2.640625 0 L 1.203125 0 L 1.203125 -8.609375 L 2.640625 -8.609375 Z M 2.640625 -7.203125 "/></g></g></g></svg>