<svg xmlns="http://www.w3.org/2000/svg" xmlns:xlink="http://www.w3.org/1999/xlink" width="500" zoomAndPan="magnify" viewBox="0 0 375 374.999991" height="500" preserveAspectRatio="xMidYMid meet" version="1.0"><defs><g/><clipPath id="e121873d97"><path d="M 84.300781 17.277344 L 276 17.277344 L 276 143 L 84.300781 143 Z M 84.300781 17.277344 " clip-rule="nonzero"/></clipPath><clipPath id="c6dc3c165a"><path d="M 182.738281 17.277344 C 128.382812 17.277344 84.320312 61.296875 84.320312 115.609375 C 84.320312 123.484375 85.597656 131.886719 87.84375 140.601562 C 114.097656 144.105469 140.953125 143.070312 166.835938 137.347656 C 205.65625 128.769531 250.097656 108.609375 275.355469 82.320312 C 261.6875 44.386719 225.390625 17.277344 182.738281 17.277344 Z M 115.058594 80.691406 L 115.035156 80.277344 C 115.035156 71.296875 122.320312 64.019531 131.3125 64.019531 C 133.199219 64.019531 135.003906 64.355469 136.6875 64.945312 C 138.429688 60.269531 142.925781 56.933594 148.207031 56.933594 C 154.15625 56.933594 159.125 61.15625 160.269531 66.773438 C 160.554688 66.757812 160.84375 66.734375 161.140625 66.734375 C 169.253906 66.734375 175.941406 72.832031 176.875 80.699219 L 115.058594 80.699219 Z M 181.234375 103.789062 L 181.226562 103.582031 C 181.226562 99.085938 184.871094 95.449219 189.367188 95.449219 C 190.308594 95.449219 191.210938 95.617188 192.050781 95.910156 C 192.921875 93.574219 195.167969 91.90625 197.808594 91.90625 C 200.789062 91.90625 203.273438 94.019531 203.839844 96.820312 C 203.984375 96.8125 204.128906 96.796875 204.28125 96.796875 C 208.339844 96.796875 211.683594 99.84375 212.148438 103.78125 L 181.234375 103.78125 Z M 181.234375 103.789062 " clip-rule="nonzero"/></clipPath><linearGradient x1="166.613479" gradientTransform="matrix(0.798769, 0, 0, 0.798079, 84.321314, 17.27619)" y1="198.552035" x2="44.780446" gradientUnits="userSpaceOnUse" y2="-24.463492" id="57f3528787"><stop stop-opacity="1" stop-color="rgb(5.099487%, 43.499756%, 89.7995%)" offset="0"/><stop stop-opacity="1" stop-color="rgb(5.099487%, 43.499756%, 89.7995%)" offset="0.25"/><stop stop-opacity="1" stop-color="rgb(5.099487%, 43.499756%, 89.7995%)" offset="0.28125"/><stop stop-opacity="1" stop-color="rgb(5.099487%, 43.534851%, 89.807129%)" offset="0.289062"/><stop stop-opacity="1" stop-color="rgb(5.099487%, 43.746948%, 89.849854%)" offset="0.296875"/><stop stop-opacity="1" stop-color="rgb(5.099487%, 44.099426%, 89.920044%)" offset="0.304688"/><stop stop-opacity="1" stop-color="rgb(5.099487%, 44.451904%, 89.99176%)" offset="0.3125"/><stop stop-opacity="1" stop-color="rgb(5.099487%, 44.804382%, 90.063477%)" offset="0.320312"/><stop stop-opacity="1" stop-color="rgb(5.099487%, 45.15686%, 90.135193%)" offset="0.328125"/><stop stop-opacity="1" stop-color="rgb(5.099487%, 45.509338%, 90.206909%)" offset="0.335938"/><stop stop-opacity="1" stop-color="rgb(5.099487%, 45.861816%, 90.278625%)" offset="0.34375"/><stop stop-opacity="1" stop-color="rgb(5.099487%, 46.214294%, 90.350342%)" offset="0.351562"/><stop stop-opacity="1" stop-color="rgb(5.099487%, 46.566772%, 90.420532%)" offset="0.359375"/><stop stop-opacity="1" stop-color="rgb(5.099487%, 46.91925%, 90.492249%)" offset="0.367188"/><stop stop-opacity="1" stop-color="rgb(5.099487%, 47.270203%, 90.563965%)" offset="0.375"/><stop stop-opacity="1" stop-color="rgb(5.099487%, 47.622681%, 90.635681%)" offset="0.382812"/><stop stop-opacity="1" stop-color="rgb(5.099487%, 47.975159%, 90.707397%)" offset="0.390625"/><stop stop-opacity="1" stop-color="rgb(5.099487%, 48.327637%, 90.779114%)" offset="0.398438"/><stop stop-opacity="1" stop-color="rgb(5.099487%, 48.680115%, 90.85083%)" offset="0.40625"/><stop stop-opacity="1" stop-color="rgb(5.099487%, 49.032593%, 90.921021%)" offset="0.414062"/><stop stop-opacity="1" stop-color="rgb(5.099487%, 49.385071%, 90.992737%)" offset="0.421875"/><stop stop-opacity="1" stop-color="rgb(5.099487%, 49.737549%, 91.064453%)" offset="0.429687"/><stop stop-opacity="1" stop-color="rgb(5.099487%, 50.090027%, 91.136169%)" offset="0.4375"/><stop stop-opacity="1" stop-color="rgb(5.099487%, 50.442505%, 91.207886%)" offset="0.445312"/><stop stop-opacity="1" stop-color="rgb(5.099487%, 50.794983%, 91.279602%)" offset="0.451191"/><stop stop-opacity="1" stop-color="rgb(5.099487%, 50.970459%, 91.316223%)" offset="0.453125"/><stop stop-opacity="1" stop-color="rgb(5.099487%, 51.145935%, 91.351318%)" offset="0.460937"/><stop stop-opacity="1" stop-color="rgb(5.099487%, 51.498413%, 91.423035%)" offset="0.46875"/><stop stop-opacity="1" stop-color="rgb(5.099487%, 51.850891%, 91.493225%)" offset="0.476562"/><stop stop-opacity="1" stop-color="rgb(5.099487%, 52.203369%, 91.564941%)" offset="0.484375"/><stop stop-opacity="1" stop-color="rgb(5.099487%, 52.555847%, 91.636658%)" offset="0.492187"/><stop stop-opacity="1" stop-color="rgb(5.099487%, 52.908325%, 91.708374%)" offset="0.5"/><stop stop-opacity="1" stop-color="rgb(5.099487%, 53.260803%, 91.78009%)" offset="0.507812"/><stop stop-opacity="1" stop-color="rgb(5.099487%, 53.613281%, 91.851807%)" offset="0.515625"/><stop stop-opacity="1" stop-color="rgb(5.099487%, 53.965759%, 91.923523%)" offset="0.523438"/><stop stop-opacity="1" stop-color="rgb(5.099487%, 54.318237%, 91.993713%)" offset="0.53125"/><stop stop-opacity="1" stop-color="rgb(5.099487%, 54.669189%, 92.06543%)" offset="0.539062"/><stop stop-opacity="1" stop-color="rgb(5.099487%, 55.021667%, 92.137146%)" offset="0.546875"/><stop stop-opacity="1" stop-color="rgb(5.099487%, 55.374146%, 92.208862%)" offset="0.548809"/><stop stop-opacity="1" stop-color="rgb(5.099487%, 55.551147%, 92.245483%)" offset="0.554688"/><stop stop-opacity="1" stop-color="rgb(5.099487%, 55.726624%, 92.280579%)" offset="0.5625"/><stop stop-opacity="1" stop-color="rgb(5.099487%, 56.079102%, 92.352295%)" offset="0.570312"/><stop stop-opacity="1" stop-color="rgb(5.099487%, 56.43158%, 92.424011%)" offset="0.578125"/><stop stop-opacity="1" stop-color="rgb(5.099487%, 56.784058%, 92.494202%)" offset="0.585938"/><stop stop-opacity="1" stop-color="rgb(5.099487%, 57.136536%, 92.565918%)" offset="0.59375"/><stop stop-opacity="1" stop-color="rgb(5.099487%, 57.489014%, 92.637634%)" offset="0.601562"/><stop stop-opacity="1" stop-color="rgb(5.099487%, 57.841492%, 92.709351%)" offset="0.609375"/><stop stop-opacity="1" stop-color="rgb(5.099487%, 58.19397%, 92.781067%)" offset="0.617188"/><stop stop-opacity="1" stop-color="rgb(5.099487%, 58.544922%, 92.852783%)" offset="0.625"/><stop stop-opacity="1" stop-color="rgb(5.099487%, 58.8974%, 92.9245%)" offset="0.632812"/><stop stop-opacity="1" stop-color="rgb(5.099487%, 59.249878%, 92.99469%)" offset="0.640625"/><stop stop-opacity="1" stop-color="rgb(5.099487%, 59.602356%, 93.066406%)" offset="0.648438"/><stop stop-opacity="1" stop-color="rgb(5.099487%, 59.954834%, 93.138123%)" offset="0.65625"/><stop stop-opacity="1" stop-color="rgb(5.099487%, 60.307312%, 93.209839%)" offset="0.664062"/><stop stop-opacity="1" stop-color="rgb(5.099487%, 60.65979%, 93.281555%)" offset="0.671875"/><stop stop-opacity="1" stop-color="rgb(5.099487%, 61.012268%, 93.353271%)" offset="0.679687"/><stop stop-opacity="1" stop-color="rgb(5.099487%, 61.364746%, 93.424988%)" offset="0.6875"/><stop stop-opacity="1" stop-color="rgb(5.099487%, 61.717224%, 93.496704%)" offset="0.695312"/><stop stop-opacity="1" stop-color="rgb(5.099487%, 62.068176%, 93.566895%)" offset="0.703125"/><stop stop-opacity="1" stop-color="rgb(5.099487%, 62.420654%, 93.638611%)" offset="0.710938"/><stop stop-opacity="1" stop-color="rgb(5.099487%, 62.773132%, 93.710327%)" offset="0.71875"/><stop stop-opacity="1" stop-color="rgb(5.099487%, 63.12561%, 93.782043%)" offset="0.726562"/><stop stop-opacity="1" stop-color="rgb(5.099487%, 63.478088%, 93.85376%)" offset="0.734375"/><stop stop-opacity="1" stop-color="rgb(5.099487%, 63.830566%, 93.925476%)" offset="0.742188"/><stop stop-opacity="1" stop-color="rgb(5.099487%, 64.183044%, 93.997192%)" offset="0.75"/><stop stop-opacity="1" stop-color="rgb(5.099487%, 64.535522%, 94.067383%)" offset="0.757812"/><stop stop-opacity="1" stop-color="rgb(5.099487%, 64.888%, 94.139099%)" offset="0.765625"/><stop stop-opacity="1" stop-color="rgb(5.099487%, 65.240479%, 94.210815%)" offset="0.773437"/><stop stop-opacity="1" stop-color="rgb(5.099487%, 65.592957%, 94.282532%)" offset="0.78125"/><stop stop-opacity="1" stop-color="rgb(5.099487%, 65.943909%, 94.354248%)" offset="0.789062"/><stop stop-opacity="1" stop-color="rgb(5.099487%, 66.296387%, 94.425964%)" offset="0.796875"/><stop stop-opacity="1" stop-color="rgb(5.099487%, 66.648865%, 94.497681%)" offset="0.804687"/><stop stop-opacity="1" stop-color="rgb(5.099487%, 67.001343%, 94.567871%)" offset="0.8125"/><stop stop-opacity="1" stop-color="rgb(5.099487%, 67.353821%, 94.639587%)" offset="0.820312"/><stop stop-opacity="1" stop-color="rgb(5.099487%, 67.706299%, 94.711304%)" offset="0.828125"/><stop stop-opacity="1" stop-color="rgb(5.099487%, 68.058777%, 94.78302%)" offset="0.835938"/><stop stop-opacity="1" stop-color="rgb(5.099487%, 68.411255%, 94.854736%)" offset="0.84375"/><stop stop-opacity="1" stop-color="rgb(5.099487%, 68.763733%, 94.926453%)" offset="0.851562"/><stop stop-opacity="1" stop-color="rgb(5.099487%, 69.116211%, 94.998169%)" offset="0.859375"/><stop stop-opacity="1" stop-color="rgb(5.099487%, 69.468689%, 95.068359%)" offset="0.867188"/><stop stop-opacity="1" stop-color="rgb(5.099487%, 69.819641%, 95.140076%)" offset="0.875"/><stop stop-opacity="1" stop-color="rgb(5.099487%, 70.172119%, 95.211792%)" offset="0.882812"/><stop stop-opacity="1" stop-color="rgb(5.099487%, 70.474243%, 95.272827%)" offset="0.890625"/><stop stop-opacity="1" stop-color="rgb(5.099487%, 70.599365%, 95.298767%)" offset="0.90625"/><stop stop-opacity="1" stop-color="rgb(5.099487%, 70.599365%, 95.298767%)" offset="0.9375"/><stop stop-opacity="1" stop-color="rgb(5.099487%, 70.599365%, 95.298767%)" offset="1"/></linearGradient><clipPath id="4bf3139457"><path d="M 125 92 L 282 92 L 282 294.777344 L 125 294.777344 Z M 125 92 " clip-rule="nonzero"/></clipPath><clipPath id="aaa10e3c8f"><path d="M 281.144531 115.609375 C 281.144531 184.011719 182.730469 294.777344 182.730469 294.777344 C 182.730469 294.777344 152.128906 260.609375 125.042969 218.375 C 151.386719 208.242188 176.890625 196.269531 200.367188 180.691406 C 233.402344 158.757812 262.359375 128.777344 278.492188 92.964844 C 280.234375 100.253906 281.144531 107.816406 281.144531 115.609375 Z M 281.144531 115.609375 " clip-rule="nonzero"/></clipPath><linearGradient x1="207.256419" gradientTransform="matrix(0.798769, 0, 0, 0.798079, 84.321314, 17.27619)" y1="360.323133" x2="115.080016" gradientUnits="userSpaceOnUse" y2="74.190435" id="1ace4e3502"><stop stop-opacity="1" stop-color="rgb(0%, 88.198853%, 57.998657%)" offset="0"/><stop stop-opacity="1" stop-color="rgb(0%, 88.198853%, 57.998657%)" offset="0.0625"/><stop stop-opacity="1" stop-color="rgb(0.012207%, 88.052368%, 58.123779%)" offset="0.078125"/><stop stop-opacity="1" stop-color="rgb(0.0366211%, 87.757874%, 58.375549%)" offset="0.0859375"/><stop stop-opacity="1" stop-color="rgb(0.0610352%, 87.460327%, 58.628845%)" offset="0.09375"/><stop stop-opacity="1" stop-color="rgb(0.0854492%, 87.161255%, 58.883667%)" offset="0.101562"/><stop stop-opacity="1" stop-color="rgb(0.111389%, 86.863708%, 59.138489%)" offset="0.109375"/><stop stop-opacity="1" stop-color="rgb(0.135803%, 86.564636%, 59.393311%)" offset="0.117187"/><stop stop-opacity="1" stop-color="rgb(0.160217%, 86.26709%, 59.648132%)" offset="0.125"/><stop stop-opacity="1" stop-color="rgb(0.186157%, 85.969543%, 59.901428%)" offset="0.132812"/><stop stop-opacity="1" stop-color="rgb(0.210571%, 85.670471%, 60.15625%)" offset="0.140625"/><stop stop-opacity="1" stop-color="rgb(0.234985%, 85.372925%, 60.411072%)" offset="0.148437"/><stop stop-opacity="1" stop-color="rgb(0.260925%, 85.073853%, 60.665894%)" offset="0.15625"/><stop stop-opacity="1" stop-color="rgb(0.285339%, 84.776306%, 60.920715%)" offset="0.164062"/><stop stop-opacity="1" stop-color="rgb(0.309753%, 84.47876%, 61.174011%)" offset="0.171875"/><stop stop-opacity="1" stop-color="rgb(0.335693%, 84.179688%, 61.428833%)" offset="0.179687"/><stop stop-opacity="1" stop-color="rgb(0.360107%, 83.882141%, 61.683655%)" offset="0.1875"/><stop stop-opacity="1" stop-color="rgb(0.384521%, 83.583069%, 61.938477%)" offset="0.195312"/><stop stop-opacity="1" stop-color="rgb(0.410461%, 83.285522%, 62.191772%)" offset="0.19934"/><stop stop-opacity="1" stop-color="rgb(0.422668%, 83.137512%, 62.319946%)" offset="0.203125"/><stop stop-opacity="1" stop-color="rgb(0.434875%, 82.987976%, 62.446594%)" offset="0.210937"/><stop stop-opacity="1" stop-color="rgb(0.45929%, 82.688904%, 62.701416%)" offset="0.21875"/><stop stop-opacity="1" stop-color="rgb(0.485229%, 82.391357%, 62.956238%)" offset="0.226562"/><stop stop-opacity="1" stop-color="rgb(0.509644%, 82.092285%, 63.21106%)" offset="0.234375"/><stop stop-opacity="1" stop-color="rgb(0.535583%, 81.794739%, 63.464355%)" offset="0.242187"/><stop stop-opacity="1" stop-color="rgb(0.559998%, 81.497192%, 63.719177%)" offset="0.25"/><stop stop-opacity="1" stop-color="rgb(0.584412%, 81.19812%, 63.973999%)" offset="0.257812"/><stop stop-opacity="1" stop-color="rgb(0.610352%, 80.900574%, 64.228821%)" offset="0.265625"/><stop stop-opacity="1" stop-color="rgb(0.634766%, 80.601501%, 64.483643%)" offset="0.273437"/><stop stop-opacity="1" stop-color="rgb(0.65918%, 80.303955%, 64.736938%)" offset="0.28125"/><stop stop-opacity="1" stop-color="rgb(0.68512%, 80.006409%, 64.99176%)" offset="0.289062"/><stop stop-opacity="1" stop-color="rgb(0.709534%, 79.707336%, 65.246582%)" offset="0.296875"/><stop stop-opacity="1" stop-color="rgb(0.733948%, 79.40979%, 65.501404%)" offset="0.304687"/><stop stop-opacity="1" stop-color="rgb(0.759888%, 79.110718%, 65.7547%)" offset="0.3125"/><stop stop-opacity="1" stop-color="rgb(0.784302%, 78.813171%, 66.009521%)" offset="0.320312"/><stop stop-opacity="1" stop-color="rgb(0.808716%, 78.515625%, 66.264343%)" offset="0.328125"/><stop stop-opacity="1" stop-color="rgb(0.834656%, 78.216553%, 66.519165%)" offset="0.335937"/><stop stop-opacity="1" stop-color="rgb(0.85907%, 77.919006%, 66.773987%)" offset="0.34375"/><stop stop-opacity="1" stop-color="rgb(0.883484%, 77.619934%, 67.027283%)" offset="0.351562"/><stop stop-opacity="1" stop-color="rgb(0.909424%, 77.322388%, 67.282104%)" offset="0.359375"/><stop stop-opacity="1" stop-color="rgb(0.933838%, 77.023315%, 67.536926%)" offset="0.367187"/><stop stop-opacity="1" stop-color="rgb(0.959778%, 76.725769%, 67.791748%)" offset="0.375"/><stop stop-opacity="1" stop-color="rgb(0.984192%, 76.428223%, 68.04657%)" offset="0.382812"/><stop stop-opacity="1" stop-color="rgb(1.008606%, 76.12915%, 68.299866%)" offset="0.390625"/><stop stop-opacity="1" stop-color="rgb(1.034546%, 75.831604%, 68.554688%)" offset="0.398437"/><stop stop-opacity="1" stop-color="rgb(1.05896%, 75.532532%, 68.809509%)" offset="0.40625"/><stop stop-opacity="1" stop-color="rgb(1.083374%, 75.234985%, 69.064331%)" offset="0.414062"/><stop stop-opacity="1" stop-color="rgb(1.109314%, 74.937439%, 69.317627%)" offset="0.421875"/><stop stop-opacity="1" stop-color="rgb(1.133728%, 74.638367%, 69.572449%)" offset="0.429687"/><stop stop-opacity="1" stop-color="rgb(1.158142%, 74.34082%, 69.827271%)" offset="0.4375"/><stop stop-opacity="1" stop-color="rgb(1.184082%, 74.041748%, 70.082092%)" offset="0.445312"/><stop stop-opacity="1" stop-color="rgb(1.208496%, 73.744202%, 70.336914%)" offset="0.453125"/><stop stop-opacity="1" stop-color="rgb(1.23291%, 73.446655%, 70.59021%)" offset="0.460937"/><stop stop-opacity="1" stop-color="rgb(1.25885%, 73.147583%, 70.845032%)" offset="0.46875"/><stop stop-opacity="1" stop-color="rgb(1.283264%, 72.850037%, 71.099854%)" offset="0.476562"/><stop stop-opacity="1" stop-color="rgb(1.307678%, 72.550964%, 71.354675%)" offset="0.484375"/><stop stop-opacity="1" stop-color="rgb(1.333618%, 72.253418%, 71.609497%)" offset="0.492187"/><stop stop-opacity="1" stop-color="rgb(1.358032%, 71.955872%, 71.862793%)" offset="0.5"/><stop stop-opacity="1" stop-color="rgb(1.382446%, 71.656799%, 72.117615%)" offset="0.507812"/><stop stop-opacity="1" stop-color="rgb(1.408386%, 71.359253%, 72.372437%)" offset="0.515625"/><stop stop-opacity="1" stop-color="rgb(1.4328%, 71.060181%, 72.627258%)" offset="0.523437"/><stop stop-opacity="1" stop-color="rgb(1.45874%, 70.762634%, 72.88208%)" offset="0.53125"/><stop stop-opacity="1" stop-color="rgb(1.483154%, 70.465088%, 73.135376%)" offset="0.539062"/><stop stop-opacity="1" stop-color="rgb(1.507568%, 70.166016%, 73.390198%)" offset="0.546875"/><stop stop-opacity="1" stop-color="rgb(1.533508%, 69.868469%, 73.64502%)" offset="0.554687"/><stop stop-opacity="1" stop-color="rgb(1.557922%, 69.569397%, 73.899841%)" offset="0.5625"/><stop stop-opacity="1" stop-color="rgb(1.582336%, 69.271851%, 74.153137%)" offset="0.570312"/><stop stop-opacity="1" stop-color="rgb(1.608276%, 68.974304%, 74.407959%)" offset="0.578125"/><stop stop-opacity="1" stop-color="rgb(1.63269%, 68.675232%, 74.662781%)" offset="0.585937"/><stop stop-opacity="1" stop-color="rgb(1.657104%, 68.377686%, 74.917603%)" offset="0.59375"/><stop stop-opacity="1" stop-color="rgb(1.683044%, 68.078613%, 75.172424%)" offset="0.601562"/><stop stop-opacity="1" stop-color="rgb(1.707458%, 67.781067%, 75.42572%)" offset="0.609375"/><stop stop-opacity="1" stop-color="rgb(1.731873%, 67.483521%, 75.680542%)" offset="0.617188"/><stop stop-opacity="1" stop-color="rgb(1.757812%, 67.184448%, 75.935364%)" offset="0.625"/><stop stop-opacity="1" stop-color="rgb(1.782227%, 66.886902%, 76.190186%)" offset="0.632812"/><stop stop-opacity="1" stop-color="rgb(1.806641%, 66.58783%, 76.445007%)" offset="0.640625"/><stop stop-opacity="1" stop-color="rgb(1.832581%, 66.290283%, 76.698303%)" offset="0.648437"/><stop stop-opacity="1" stop-color="rgb(1.856995%, 65.992737%, 76.953125%)" offset="0.65625"/><stop stop-opacity="1" stop-color="rgb(1.882935%, 65.693665%, 77.207947%)" offset="0.664062"/><stop stop-opacity="1" stop-color="rgb(1.907349%, 65.396118%, 77.462769%)" offset="0.671875"/><stop stop-opacity="1" stop-color="rgb(1.931763%, 65.097046%, 77.716064%)" offset="0.679687"/><stop stop-opacity="1" stop-color="rgb(1.957703%, 64.7995%, 77.970886%)" offset="0.6875"/><stop stop-opacity="1" stop-color="rgb(1.983643%, 64.474487%, 78.248596%)" offset="0.75"/><stop stop-opacity="1" stop-color="rgb(1.998901%, 64.299011%, 78.399658%)" offset="0.80066"/><stop stop-opacity="1" stop-color="rgb(1.998901%, 64.299011%, 78.399658%)" offset="1"/></linearGradient><clipPath id="c21182173e"><path d="M 281 21 L 337.800781 21 L 337.800781 80 L 281 80 Z M 281 21 " clip-rule="nonzero"/></clipPath><clipPath id="ed910b1dcc"><path d="M 337.746094 23.367188 L 337.234375 29.289062 C 336.980469 30.730469 335.925781 32.742188 334.871094 33.773438 L 328.25 40.246094 C 327.203125 41.273438 326.699219 43.246094 327.132812 44.660156 L 334.074219 67.195312 C 334.511719 68.609375 334.472656 70.875 334 72.273438 L 333.929688 72.464844 C 333.449219 73.859375 332.410156 73.980469 331.613281 72.742188 L 318.472656 52.472656 C 317.671875 51.242188 316.125 51.027344 315.015625 51.984375 L 301.96875 63.375 C 300.867188 64.339844 300.1875 66.292969 300.46875 67.738281 L 301.652344 73.875 C 301.9375 75.3125 301.851562 77.425781 301.464844 78.585938 C 301.082031 79.742188 300.109375 79.6875 299.285156 78.480469 L 294.957031 72.105469 C 294.132812 70.90625 292.824219 70.484375 292.035156 71.203125 C 291.242188 71.921875 290.15625 72.535156 289.597656 72.566406 C 289.046875 72.605469 288.613281 72.265625 288.636719 71.808594 C 288.664062 71.355469 289.101562 70.203125 289.644531 69.253906 C 290.179688 68.296875 289.542969 66.996094 288.222656 66.34375 L 287.863281 66.167969 C 287.871094 66.132812 287.878906 66.09375 287.886719 66.0625 C 287.871094 66.09375 287.847656 66.117188 287.832031 66.152344 L 282.910156 63.714844 C 281.601562 63.078125 280.867188 62.105469 281.28125 61.570312 C 281.707031 61.035156 283.230469 60.667969 284.707031 60.753906 L 293.464844 61.234375 C 294.933594 61.320312 296.777344 60.386719 297.578125 59.160156 L 306.539062 45.449219 C 307.34375 44.21875 306.953125 42.640625 305.667969 41.921875 L 285.601562 30.773438 C 284.308594 30.070312 284.101562 29.039062 285.109375 28.496094 C 286.113281 27.96875 288.09375 27.792969 289.53125 28.113281 L 314.34375 32.917969 C 315.78125 33.246094 317.730469 32.625 318.703125 31.515625 L 325.261719 24.324219 C 326.246094 23.214844 328.203125 22.121094 329.65625 21.875 L 335.558594 21.1875 C 337.011719 20.9375 337.988281 21.921875 337.746094 23.367188 Z M 337.746094 23.367188 " clip-rule="nonzero"/></clipPath><linearGradient x1="274.569619" gradientTransform="matrix(0.798769, 0, 0, 0.798079, 84.321314, 17.27619)" y1="-1.695582" x2="293.364989" gradientUnits="userSpaceOnUse" y2="83.555048" id="d29ccfe65a"><stop stop-opacity="1" stop-color="rgb(5.099487%, 44.961548%, 90.09552%)" offset="0"/><stop stop-opacity="1" stop-color="rgb(5.099487%, 45.153809%, 90.135193%)" offset="0.015625"/><stop stop-opacity="1" stop-color="rgb(5.099487%, 45.539856%, 90.213013%)" offset="0.03125"/><stop stop-opacity="1" stop-color="rgb(5.099487%, 45.927429%, 90.292358%)" offset="0.046875"/><stop stop-opacity="1" stop-color="rgb(5.099487%, 46.313477%, 90.370178%)" offset="0.0625"/><stop stop-opacity="1" stop-color="rgb(5.099487%, 46.699524%, 90.447998%)" offset="0.078125"/><stop stop-opacity="1" stop-color="rgb(5.099487%, 47.087097%, 90.527344%)" offset="0.09375"/><stop stop-opacity="1" stop-color="rgb(5.099487%, 47.473145%, 90.605164%)" offset="0.109375"/><stop stop-opacity="1" stop-color="rgb(5.099487%, 47.859192%, 90.684509%)" offset="0.125"/><stop stop-opacity="1" stop-color="rgb(5.099487%, 48.246765%, 90.762329%)" offset="0.140625"/><stop stop-opacity="1" stop-color="rgb(5.099487%, 48.632812%, 90.840149%)" offset="0.15625"/><stop stop-opacity="1" stop-color="rgb(5.099487%, 49.01886%, 90.919495%)" offset="0.171875"/><stop stop-opacity="1" stop-color="rgb(5.099487%, 49.406433%, 90.997314%)" offset="0.175788"/><stop stop-opacity="1" stop-color="rgb(5.099487%, 49.60022%, 91.036987%)" offset="0.1875"/><stop stop-opacity="1" stop-color="rgb(5.099487%, 49.79248%, 91.07666%)" offset="0.203125"/><stop stop-opacity="1" stop-color="rgb(5.099487%, 50.178528%, 91.15448%)" offset="0.21875"/><stop stop-opacity="1" stop-color="rgb(5.099487%, 50.566101%, 91.2323%)" offset="0.234375"/><stop stop-opacity="1" stop-color="rgb(5.099487%, 50.952148%, 91.311646%)" offset="0.25"/><stop stop-opacity="1" stop-color="rgb(5.099487%, 51.338196%, 91.389465%)" offset="0.265625"/><stop stop-opacity="1" stop-color="rgb(5.099487%, 51.725769%, 91.468811%)" offset="0.28125"/><stop stop-opacity="1" stop-color="rgb(5.099487%, 52.111816%, 91.546631%)" offset="0.296875"/><stop stop-opacity="1" stop-color="rgb(5.099487%, 52.497864%, 91.625977%)" offset="0.3125"/><stop stop-opacity="1" stop-color="rgb(5.099487%, 52.885437%, 91.703796%)" offset="0.328125"/><stop stop-opacity="1" stop-color="rgb(5.099487%, 53.271484%, 91.781616%)" offset="0.34375"/><stop stop-opacity="1" stop-color="rgb(5.099487%, 53.657532%, 91.860962%)" offset="0.359375"/><stop stop-opacity="1" stop-color="rgb(5.099487%, 54.045105%, 91.938782%)" offset="0.375"/><stop stop-opacity="1" stop-color="rgb(5.099487%, 54.431152%, 92.018127%)" offset="0.390625"/><stop stop-opacity="1" stop-color="rgb(5.099487%, 54.8172%, 92.095947%)" offset="0.40625"/><stop stop-opacity="1" stop-color="rgb(5.099487%, 55.204773%, 92.173767%)" offset="0.421875"/><stop stop-opacity="1" stop-color="rgb(5.099487%, 55.59082%, 92.253113%)" offset="0.4375"/><stop stop-opacity="1" stop-color="rgb(5.099487%, 55.976868%, 92.330933%)" offset="0.453125"/><stop stop-opacity="1" stop-color="rgb(5.099487%, 56.364441%, 92.410278%)" offset="0.46875"/><stop stop-opacity="1" stop-color="rgb(5.099487%, 56.750488%, 92.488098%)" offset="0.484375"/><stop stop-opacity="1" stop-color="rgb(5.099487%, 57.136536%, 92.565918%)" offset="0.5"/><stop stop-opacity="1" stop-color="rgb(5.099487%, 57.524109%, 92.645264%)" offset="0.515625"/><stop stop-opacity="1" stop-color="rgb(5.099487%, 57.910156%, 92.723083%)" offset="0.53125"/><stop stop-opacity="1" stop-color="rgb(5.099487%, 58.296204%, 92.802429%)" offset="0.546875"/><stop stop-opacity="1" stop-color="rgb(5.099487%, 58.683777%, 92.880249%)" offset="0.5625"/><stop stop-opacity="1" stop-color="rgb(5.099487%, 59.069824%, 92.959595%)" offset="0.578125"/><stop stop-opacity="1" stop-color="rgb(5.099487%, 59.455872%, 93.037415%)" offset="0.59375"/><stop stop-opacity="1" stop-color="rgb(5.099487%, 59.843445%, 93.115234%)" offset="0.609375"/><stop stop-opacity="1" stop-color="rgb(5.099487%, 60.229492%, 93.19458%)" offset="0.625"/><stop stop-opacity="1" stop-color="rgb(5.099487%, 60.61554%, 93.2724%)" offset="0.640625"/><stop stop-opacity="1" stop-color="rgb(5.099487%, 61.003113%, 93.351746%)" offset="0.65625"/><stop stop-opacity="1" stop-color="rgb(5.099487%, 61.38916%, 93.429565%)" offset="0.671875"/><stop stop-opacity="1" stop-color="rgb(5.099487%, 61.775208%, 93.507385%)" offset="0.6875"/><stop stop-opacity="1" stop-color="rgb(5.099487%, 62.161255%, 93.586731%)" offset="0.703125"/><stop stop-opacity="1" stop-color="rgb(5.099487%, 62.548828%, 93.664551%)" offset="0.71875"/><stop stop-opacity="1" stop-color="rgb(5.099487%, 62.934875%, 93.743896%)" offset="0.734375"/><stop stop-opacity="1" stop-color="rgb(5.099487%, 63.320923%, 93.821716%)" offset="0.75"/><stop stop-opacity="1" stop-color="rgb(5.099487%, 63.708496%, 93.901062%)" offset="0.765625"/><stop stop-opacity="1" stop-color="rgb(5.099487%, 64.094543%, 93.978882%)" offset="0.78125"/><stop stop-opacity="1" stop-color="rgb(5.099487%, 64.480591%, 94.056702%)" offset="0.796875"/><stop stop-opacity="1" stop-color="rgb(5.099487%, 64.868164%, 94.136047%)" offset="0.8125"/><stop stop-opacity="1" stop-color="rgb(5.099487%, 65.254211%, 94.213867%)" offset="0.824212"/><stop stop-opacity="1" stop-color="rgb(5.099487%, 65.447998%, 94.25354%)" offset="0.828125"/><stop stop-opacity="1" stop-color="rgb(5.099487%, 65.640259%, 94.293213%)" offset="0.84375"/><stop stop-opacity="1" stop-color="rgb(5.099487%, 66.027832%, 94.371033%)" offset="0.859375"/><stop stop-opacity="1" stop-color="rgb(5.099487%, 66.413879%, 94.448853%)" offset="0.875"/><stop stop-opacity="1" stop-color="rgb(5.099487%, 66.799927%, 94.528198%)" offset="0.890625"/><stop stop-opacity="1" stop-color="rgb(5.099487%, 67.1875%, 94.606018%)" offset="0.90625"/><stop stop-opacity="1" stop-color="rgb(5.099487%, 67.573547%, 94.685364%)" offset="0.921875"/><stop stop-opacity="1" stop-color="rgb(5.099487%, 67.959595%, 94.763184%)" offset="0.9375"/><stop stop-opacity="1" stop-color="rgb(5.099487%, 68.347168%, 94.841003%)" offset="0.953125"/><stop stop-opacity="1" stop-color="rgb(5.099487%, 68.733215%, 94.920349%)" offset="0.96875"/><stop stop-opacity="1" stop-color="rgb(5.099487%, 69.119263%, 94.998169%)" offset="0.984375"/><stop stop-opacity="1" stop-color="rgb(5.099487%, 69.506836%, 95.077515%)" offset="1"/></linearGradient><clipPath id="e95cc1facc"><path d="M 287 66 L 288 66 L 288 67 L 287 67 Z M 287 66 " clip-rule="nonzero"/></clipPath><clipPath id="3dda67cd89"><path d="M 287.824219 66.140625 L 287.847656 66.160156 C 287.855469 66.125 287.863281 66.085938 287.871094 66.054688 C 287.855469 66.085938 287.839844 66.117188 287.824219 66.140625 Z M 287.824219 66.140625 " clip-rule="nonzero"/></clipPath><linearGradient x1="-1899.39713" gradientTransform="matrix(-0.199037, 0.772905, -0.773574, -0.198865, -1593.531817, 1147.668612)" y1="-1943.262132" x2="-1899.46758" gradientUnits="userSpaceOnUse" y2="-1943.391093" id="d53a60a6e6"><stop stop-opacity="1" stop-color="rgb(5.099487%, 58.894348%, 92.9245%)" offset="0"/><stop stop-opacity="1" stop-color="rgb(5.099487%, 58.8974%, 92.9245%)" offset="0.459526"/><stop stop-opacity="1" stop-color="rgb(5.099487%, 58.901978%, 92.9245%)" offset="0.5"/><stop stop-opacity="1" stop-color="rgb(5.099487%, 58.905029%, 92.9245%)" offset="0.540474"/><stop stop-opacity="1" stop-color="rgb(5.099487%, 58.909607%, 92.926025%)" offset="1"/></linearGradient></defs><g clip-path="url(#e121873d97)"><g clip-path="url(#c6dc3c165a)"><path fill="url(#57f3528787)" d="M 84.320312 17.277344 L 84.320312 144.105469 L 275.355469 144.105469 L 275.355469 17.277344 Z M 84.320312 17.277344 " fill-rule="nonzero"/></g></g><g clip-path="url(#4bf3139457)"><g clip-path="url(#aaa10e3c8f)"><path fill="url(#1ace4e3502)" d="M 125.042969 92.964844 L 125.042969 294.777344 L 281.144531 294.777344 L 281.144531 92.964844 Z M 125.042969 92.964844 " fill-rule="nonzero"/></g></g><g clip-path="url(#c21182173e)"><g clip-path="url(#ed910b1dcc)"><path fill="url(#d29ccfe65a)" d="M 280.867188 20.9375 L 280.867188 79.742188 L 337.800781 79.742188 L 337.800781 20.9375 Z M 280.867188 20.9375 " fill-rule="nonzero"/></g></g><g clip-path="url(#e95cc1facc)"><g clip-path="url(#3dda67cd89)"><path fill="url(#d53a60a6e6)" d="M 287.898438 66.0625 L 287.828125 66.042969 L 287.796875 66.152344 L 287.867188 66.171875 Z M 287.898438 66.0625 " fill-rule="nonzero"/></g></g><g fill="#000000" fill-opacity="1"><g transform="translate(74.384493, 346.951401)"><g><path d="M 13.953125 0.328125 C 11.804688 0.328125 9.875 -0.046875 8.15625 -0.796875 C 6.445312 -1.546875 5.101562 -2.609375 4.125 -3.984375 C 3.144531 -5.367188 2.65625 -6.976562 2.65625 -8.8125 L 8.25 -8.8125 C 8.375 -7.4375 8.914062 -6.300781 9.875 -5.40625 C 10.84375 -4.519531 12.203125 -4.078125 13.953125 -4.078125 C 15.753906 -4.078125 17.160156 -4.515625 18.171875 -5.390625 C 19.179688 -6.265625 19.6875 -7.390625 19.6875 -8.765625 C 19.6875 -9.835938 19.367188 -10.707031 18.734375 -11.375 C 18.109375 -12.050781 17.328125 -12.570312 16.390625 -12.9375 C 15.460938 -13.300781 14.175781 -13.695312 12.53125 -14.125 C 10.445312 -14.675781 8.753906 -15.234375 7.453125 -15.796875 C 6.148438 -16.367188 5.039062 -17.25 4.125 -18.4375 C 3.207031 -19.632812 2.75 -21.226562 2.75 -23.21875 C 2.75 -25.050781 3.207031 -26.65625 4.125 -28.03125 C 5.039062 -29.40625 6.320312 -30.457031 7.96875 -31.1875 C 9.625 -31.925781 11.539062 -32.296875 13.71875 -32.296875 C 16.800781 -32.296875 19.328125 -31.519531 21.296875 -29.96875 C 23.273438 -28.425781 24.375 -26.3125 24.59375 -23.625 L 18.8125 -23.625 C 18.71875 -24.789062 18.164062 -25.785156 17.15625 -26.609375 C 16.144531 -27.429688 14.816406 -27.84375 13.171875 -27.84375 C 11.671875 -27.84375 10.445312 -27.457031 9.5 -26.6875 C 8.550781 -25.925781 8.078125 -24.828125 8.078125 -23.390625 C 8.078125 -22.410156 8.375 -21.609375 8.96875 -20.984375 C 9.5625 -20.359375 10.316406 -19.863281 11.234375 -19.5 C 12.148438 -19.132812 13.40625 -18.734375 15 -18.296875 C 17.113281 -17.722656 18.832031 -17.144531 20.15625 -16.5625 C 21.488281 -15.976562 22.617188 -15.082031 23.546875 -13.875 C 24.484375 -12.664062 24.953125 -11.050781 24.953125 -9.03125 C 24.953125 -7.414062 24.515625 -5.890625 23.640625 -4.453125 C 22.773438 -3.015625 21.507812 -1.859375 19.84375 -0.984375 C 18.175781 -0.109375 16.210938 0.328125 13.953125 0.328125 Z M 13.953125 0.328125 "/></g></g></g><g fill="#000000" fill-opacity="1"><g transform="translate(102.087388, 346.951401)"><g><path d="M 6.09375 -28.625 C 5.144531 -28.625 4.347656 -28.941406 3.703125 -29.578125 C 3.066406 -30.222656 2.75 -31.019531 2.75 -31.96875 C 2.75 -32.914062 3.066406 -33.710938 3.703125 -34.359375 C 4.347656 -35.003906 5.144531 -35.328125 6.09375 -35.328125 C 7.019531 -35.328125 7.800781 -35.003906 8.4375 -34.359375 C 9.082031 -33.710938 9.40625 -32.914062 9.40625 -31.96875 C 9.40625 -31.019531 9.082031 -30.222656 8.4375 -29.578125 C 7.800781 -28.941406 7.019531 -28.625 6.09375 -28.625 Z M 8.671875 -25.28125 L 8.671875 0 L 3.4375 0 L 3.4375 -25.28125 Z M 8.671875 -25.28125 "/></g></g></g><g fill="#000000" fill-opacity="1"><g transform="translate(114.195939, 346.951401)"><g><path d="M 13.21875 -4.671875 L 20.375 -25.28125 L 25.921875 -25.28125 L 16.28125 0 L 10.046875 0 L 0.453125 -25.28125 L 6.0625 -25.28125 Z M 13.21875 -4.671875 "/></g></g></g><g fill="#000000" fill-opacity="1"><g transform="translate(140.6146, 346.951401)"><g><path d="M 1.703125 -12.75 C 1.703125 -15.289062 2.226562 -17.539062 3.28125 -19.5 C 4.332031 -21.457031 5.769531 -22.976562 7.59375 -24.0625 C 9.414062 -25.144531 11.425781 -25.6875 13.625 -25.6875 C 15.613281 -25.6875 17.347656 -25.296875 18.828125 -24.515625 C 20.316406 -23.734375 21.503906 -22.765625 22.390625 -21.609375 L 22.390625 -25.28125 L 27.65625 -25.28125 L 27.65625 0 L 22.390625 0 L 22.390625 -3.765625 C 21.503906 -2.566406 20.296875 -1.570312 18.765625 -0.78125 C 17.234375 0.0078125 15.488281 0.40625 13.53125 0.40625 C 11.363281 0.40625 9.375 -0.148438 7.5625 -1.265625 C 5.757812 -2.378906 4.332031 -3.9375 3.28125 -5.9375 C 2.226562 -7.945312 1.703125 -10.21875 1.703125 -12.75 Z M 22.390625 -12.65625 C 22.390625 -14.40625 22.03125 -15.921875 21.3125 -17.203125 C 20.59375 -18.484375 19.648438 -19.457031 18.484375 -20.125 C 17.328125 -20.800781 16.070312 -21.140625 14.71875 -21.140625 C 13.375 -21.140625 12.117188 -20.8125 10.953125 -20.15625 C 9.796875 -19.5 8.859375 -18.535156 8.140625 -17.265625 C 7.421875 -16.003906 7.0625 -14.5 7.0625 -12.75 C 7.0625 -11.007812 7.421875 -9.476562 8.140625 -8.15625 C 8.859375 -6.84375 9.804688 -5.84375 10.984375 -5.15625 C 12.160156 -4.46875 13.40625 -4.125 14.71875 -4.125 C 16.070312 -4.125 17.328125 -4.457031 18.484375 -5.125 C 19.648438 -5.800781 20.59375 -6.789062 21.3125 -8.09375 C 22.03125 -9.394531 22.390625 -10.914062 22.390625 -12.65625 Z M 22.390625 -12.65625 "/></g></g></g><g fill="#000000" fill-opacity="1"><g transform="translate(171.711572, 346.951401)"><g><path d="M 8.671875 -21.609375 C 9.429688 -22.890625 10.445312 -23.890625 11.71875 -24.609375 C 12.988281 -25.328125 14.492188 -25.6875 16.234375 -25.6875 L 16.234375 -20.28125 L 14.90625 -20.28125 C 12.851562 -20.28125 11.300781 -19.757812 10.25 -18.71875 C 9.195312 -17.675781 8.671875 -15.867188 8.671875 -13.296875 L 8.671875 0 L 3.4375 0 L 3.4375 -25.28125 L 8.671875 -25.28125 Z M 8.671875 -21.609375 "/></g></g></g><g fill="#000000" fill-opacity="1"><g transform="translate(189.324013, 346.951401)"><g><path d="M 20.5 -16.375 C 22.21875 -16.070312 23.671875 -15.171875 24.859375 -13.671875 C 26.054688 -12.171875 26.65625 -10.472656 26.65625 -8.578125 C 26.65625 -6.953125 26.234375 -5.488281 25.390625 -4.1875 C 24.546875 -2.894531 23.328125 -1.875 21.734375 -1.125 C 20.148438 -0.375 18.300781 0 16.1875 0 L 3.4375 0 L 3.4375 -31.890625 L 15.59375 -31.890625 C 17.769531 -31.890625 19.632812 -31.519531 21.1875 -30.78125 C 22.75 -30.050781 23.925781 -29.066406 24.71875 -27.828125 C 25.519531 -26.585938 25.921875 -25.203125 25.921875 -23.671875 C 25.921875 -21.835938 25.429688 -20.304688 24.453125 -19.078125 C 23.472656 -17.859375 22.15625 -16.957031 20.5 -16.375 Z M 8.671875 -18.484375 L 15.140625 -18.484375 C 16.847656 -18.484375 18.179688 -18.875 19.140625 -19.65625 C 20.109375 -20.4375 20.59375 -21.5625 20.59375 -23.03125 C 20.59375 -24.46875 20.109375 -25.585938 19.140625 -26.390625 C 18.179688 -27.203125 16.847656 -27.609375 15.140625 -27.609375 L 8.671875 -27.609375 Z M 15.734375 -4.265625 C 17.503906 -4.265625 18.894531 -4.691406 19.90625 -5.546875 C 20.914062 -6.398438 21.421875 -7.59375 21.421875 -9.125 C 21.421875 -10.6875 20.882812 -11.925781 19.8125 -12.84375 C 18.75 -13.757812 17.328125 -14.21875 15.546875 -14.21875 L 8.671875 -14.21875 L 8.671875 -4.265625 Z M 15.734375 -4.265625 "/></g></g></g><g fill="#000000" fill-opacity="1"><g transform="translate(218.219426, 346.951401)"><g><path d="M 14.40625 0.40625 C 12.019531 0.40625 9.863281 -0.132812 7.9375 -1.21875 C 6.007812 -2.300781 4.492188 -3.828125 3.390625 -5.796875 C 2.296875 -7.773438 1.75 -10.0625 1.75 -12.65625 C 1.75 -15.226562 2.3125 -17.507812 3.4375 -19.5 C 4.570312 -21.488281 6.117188 -23.015625 8.078125 -24.078125 C 10.035156 -25.148438 12.222656 -25.6875 14.640625 -25.6875 C 17.054688 -25.6875 19.238281 -25.148438 21.1875 -24.078125 C 23.144531 -23.015625 24.691406 -21.488281 25.828125 -19.5 C 26.960938 -17.507812 27.53125 -15.226562 27.53125 -12.65625 C 27.53125 -10.09375 26.945312 -7.816406 25.78125 -5.828125 C 24.613281 -3.835938 23.03125 -2.300781 21.03125 -1.21875 C 19.03125 -0.132812 16.820312 0.40625 14.40625 0.40625 Z M 14.40625 -4.125 C 15.75 -4.125 17.007812 -4.445312 18.1875 -5.09375 C 19.363281 -5.738281 20.316406 -6.703125 21.046875 -7.984375 C 21.785156 -9.265625 22.15625 -10.820312 22.15625 -12.65625 C 22.15625 -14.488281 21.800781 -16.039062 21.09375 -17.3125 C 20.394531 -18.582031 19.460938 -19.535156 18.296875 -20.171875 C 17.140625 -20.816406 15.890625 -21.140625 14.546875 -21.140625 C 13.203125 -21.140625 11.953125 -20.816406 10.796875 -20.171875 C 9.648438 -19.535156 8.738281 -18.582031 8.0625 -17.3125 C 7.394531 -16.039062 7.0625 -14.488281 7.0625 -12.65625 C 7.0625 -9.9375 7.753906 -7.832031 9.140625 -6.34375 C 10.535156 -4.863281 12.289062 -4.125 14.40625 -4.125 Z M 14.40625 -4.125 "/></g></g></g><g fill="#000000" fill-opacity="1"><g transform="translate(247.481763, 346.951401)"><g><path d="M 14.40625 0.40625 C 12.019531 0.40625 9.863281 -0.132812 7.9375 -1.21875 C 6.007812 -2.300781 4.492188 -3.828125 3.390625 -5.796875 C 2.296875 -7.773438 1.75 -10.0625 1.75 -12.65625 C 1.75 -15.226562 2.3125 -17.507812 3.4375 -19.5 C 4.570312 -21.488281 6.117188 -23.015625 8.078125 -24.078125 C 10.035156 -25.148438 12.222656 -25.6875 14.640625 -25.6875 C 17.054688 -25.6875 19.238281 -25.148438 21.1875 -24.078125 C 23.144531 -23.015625 24.691406 -21.488281 25.828125 -19.5 C 26.960938 -17.507812 27.53125 -15.226562 27.53125 -12.65625 C 27.53125 -10.09375 26.945312 -7.816406 25.78125 -5.828125 C 24.613281 -3.835938 23.03125 -2.300781 21.03125 -1.21875 C 19.03125 -0.132812 16.820312 0.40625 14.40625 0.40625 Z M 14.40625 -4.125 C 15.75 -4.125 17.007812 -4.445312 18.1875 -5.09375 C 19.363281 -5.738281 20.316406 -6.703125 21.046875 -7.984375 C 21.785156 -9.265625 22.15625 -10.820312 22.15625 -12.65625 C 22.15625 -14.488281 21.800781 -16.039062 21.09375 -17.3125 C 20.394531 -18.582031 19.460938 -19.535156 18.296875 -20.171875 C 17.140625 -20.816406 15.890625 -21.140625 14.546875 -21.140625 C 13.203125 -21.140625 11.953125 -20.816406 10.796875 -20.171875 C 9.648438 -19.535156 8.738281 -18.582031 8.0625 -17.3125 C 7.394531 -16.039062 7.0625 -14.488281 7.0625 -12.65625 C 7.0625 -9.9375 7.753906 -7.832031 9.140625 -6.34375 C 10.535156 -4.863281 12.289062 -4.125 14.40625 -4.125 Z M 14.40625 -4.125 "/></g></g></g><g fill="#000000" fill-opacity="1"><g transform="translate(276.744099, 346.951401)"><g><path d="M 13.4375 -12.609375 L 25.09375 0 L 18.03125 0 L 8.671875 -10.875 L 8.671875 0 L 3.4375 0 L 3.4375 -33.953125 L 8.671875 -33.953125 L 8.671875 -14.21875 L 17.84375 -25.28125 L 25.09375 -25.28125 Z M 13.4375 -12.609375 "/></g></g></g></svg>